<svg width="150" height="150" viewBox="0 0 150 150" version="1.1" xmlns="http://www.w3.org/2000/svg" xmlns:xlink="http://www.w3.org/1999/xlink">
<title>1</title>
<desc>Created using Figma</desc>
<g id="Canvas" transform="translate(-118 1384)">
<g id="1">
<g id="Ellipse">
<use xlink:href="#path0_fill" transform="translate(118 -1384)" fill="#2980B9"/>
</g>
<g id="if_politic_465072">
<g id="Group">
<g id="Vector">
<mask id="mask0_outline_ins">
<use xlink:href="#path1_fill" fill="white" transform="translate(165.312 -1349)"/>
</mask>
<g mask="url(#mask0_outline_ins)">
<use xlink:href="#path2_stroke_2x" transform="translate(165.312 -1349)" fill="#FFFFFF"/>
</g>
</g>
<g id="Vector">
<mask id="mask1_outline_ins">
<use xlink:href="#path3_fill" fill="white" transform="translate(182.625 -1331.69)"/>
</mask>
<g mask="url(#mask1_outline_ins)">
<use xlink:href="#path4_stroke_2x" transform="translate(182.625 -1331.69)" fill="#FFFFFF"/>
</g>
</g>
<g id="Vector">
<mask id="mask2_outline_ins">
<use xlink:href="#path5_fill" fill="white" transform="translate(156 -1301.42)"/>
</mask>
<g mask="url(#mask2_outline_ins)">
<use xlink:href="#path6_stroke_2x" transform="translate(156 -1301.42)" fill="#FFFFFF"/>
</g>
</g>
<g id="Vector">
<mask id="mask3_outline_ins">
<use xlink:href="#path7_fill" fill="white" transform="translate(199.531 -1301.42)"/>
</mask>
<g mask="url(#mask3_outline_ins)">
<use xlink:href="#path8_stroke_2x" transform="translate(199.531 -1301.42)" fill="#FFFFFF"/>
</g>
</g>
</g>
</g>
</g>
</g>
<defs>
<path id="path0_fill" d="M 150 75C 150 116.421 116.421 150 75 150C 33.5786 150 0 116.421 0 75C 0 33.5786 33.5786 0 75 0C 116.421 0 150 33.5786 150 75Z"/>
<path id="path1_fill" d="M 28.2031 56.4219C 12.6562 56.4219 4.76837e-07 43.7656 4.76837e-07 28.2188C 4.76837e-07 12.6563 12.6562 0 28.2031 0C 43.75 0 56.4062 12.6562 56.4062 28.2031C 56.4062 43.7656 43.75 56.4219 28.2031 56.4219ZM 28.2031 13.1406C 19.8906 13.1406 13.125 19.9063 13.125 28.2188C 13.125 36.5313 19.8906 43.2812 28.2031 43.2812C 36.5156 43.2812 43.2812 36.5156 43.2812 28.2188C 43.2812 19.8906 36.5156 13.1406 28.2031 13.1406Z"/>
<path id="path2_stroke_2x" d="M 28.2031 54.9219C 13.4847 54.9219 1.5 42.9372 1.5 28.2188L -1.5 28.2188C -1.5 44.5941 11.8278 57.9219 28.2031 57.9219L 28.2031 54.9219ZM 1.5 28.2188C 1.5 13.4841 13.4852 1.5 28.2031 1.5L 28.2031 -1.5C 11.8273 -1.5 -1.5 11.8284 -1.5 28.2188L 1.5 28.2188ZM 28.2031 1.5C 42.9216 1.5 54.9062 13.4847 54.9062 28.2031L 57.9062 28.2031C 57.9062 11.8278 44.5784 -1.5 28.2031 -1.5L 28.2031 1.5ZM 54.9062 28.2031C 54.9062 42.9377 42.921 54.9219 28.2031 54.9219L 28.2031 57.9219C 44.579 57.9219 57.9062 44.5935 57.9062 28.2031L 54.9062 28.2031ZM 28.2031 11.6406C 19.0622 11.6406 11.625 19.0778 11.625 28.2188L 14.625 28.2188C 14.625 20.7347 20.7191 14.6406 28.2031 14.6406L 28.2031 11.6406ZM 11.625 28.2188C 11.625 37.3617 19.0642 44.7812 28.2031 44.7812L 28.2031 41.7812C 20.717 41.7812 14.625 35.7008 14.625 28.2188L 11.625 28.2188ZM 28.2031 44.7812C 37.343 44.7812 44.7812 37.3451 44.7812 28.2188L 41.7812 28.2188C 41.7812 35.6862 35.6882 41.7812 28.2031 41.7812L 28.2031 44.7812ZM 44.7812 28.2188C 44.7812 19.0612 37.343 11.6406 28.2031 11.6406L 28.2031 14.6406C 35.6882 14.6406 41.7812 20.7201 41.7812 28.2188L 44.7812 28.2188Z"/>
<path id="path3_fill" d="M 10.8906 21.7812C 16.9053 21.7812 21.7812 16.9053 21.7812 10.8906C 21.7812 4.8759 16.9053 0 10.8906 0C 4.8759 0 0 4.8759 0 10.8906C 0 16.9053 4.8759 21.7812 10.8906 21.7812Z"/>
<path id="path4_stroke_2x" d="M 20.2812 10.8906C 20.2812 16.0769 16.0769 20.2812 10.8906 20.2812L 10.8906 23.2812C 17.7338 23.2812 23.2812 17.7338 23.2812 10.8906L 20.2812 10.8906ZM 10.8906 20.2812C 5.70432 20.2812 1.5 16.0769 1.5 10.8906L -1.5 10.8906C -1.5 17.7338 4.04747 23.2812 10.8906 23.2812L 10.8906 20.2812ZM 1.5 10.8906C 1.5 5.70433 5.70432 1.5 10.8906 1.5L 10.8906 -1.5C 4.04747 -1.5 -1.5 4.04747 -1.5 10.8906L 1.5 10.8906ZM 10.8906 1.5C 16.0769 1.5 20.2812 5.70433 20.2812 10.8906L 23.2812 10.8906C 23.2812 4.04747 17.7338 -1.5 10.8906 -1.5L 10.8906 1.5Z"/>
<path id="path5_fill" d="M 12.5781 0L 1.19209e-07 21.3594L 11.7812 22.8438L 18.7812 32.4219L 31.2656 11.2344C 23.2656 10.1406 17.0781 6.32812 12.5781 0Z"/>
<path id="path6_stroke_2x" d="M 12.5781 0L 13.8006 -0.869286L 12.4597 -2.75491L 11.2856 -0.76115L 12.5781 0ZM 1.19209e-07 21.3594L -1.29254 20.5982L -2.44934 22.5626L -0.187509 22.8476L 1.19209e-07 21.3594ZM 11.7812 22.8438L 12.9923 21.9587L 12.6106 21.4364L 11.9688 21.3555L 11.7812 22.8438ZM 18.7812 32.4219L 17.5702 33.3069L 18.9158 35.1482L 20.0736 33.1834L 18.7812 32.4219ZM 31.2656 11.2344L 32.558 11.9959L 33.7024 10.0536L 31.4688 9.7482L 31.2656 11.2344ZM 11.2856 -0.76115L -1.29254 20.5982L 1.29254 22.1205L 13.8707 0.76115L 11.2856 -0.76115ZM -0.187509 22.8476L 11.5937 24.332L 11.9688 21.3555L 0.18751 19.8711L -0.187509 22.8476ZM 10.5702 23.7288L 17.5702 33.3069L 19.9923 31.5368L 12.9923 21.9587L 10.5702 23.7288ZM 20.0736 33.1834L 32.558 11.9959L 29.9733 10.4729L 17.4889 31.6604L 20.0736 33.1834ZM 31.4688 9.7482C 23.8786 8.71048 18.0602 5.12087 13.8006 -0.869286L 11.3557 0.869286C 16.096 7.53538 22.6526 11.5708 31.0624 12.7205L 31.4688 9.7482Z"/>
<path id="path7_fill" d="M 18.6719 0L 31.2656 21.3594L 19.4844 22.8438L 12.4844 32.4219L -1.90735e-06 11.2344C 7.98437 10.1406 14.1719 6.32812 18.6719 0Z"/>
<path id="path8_stroke_2x" d="M 18.6719 0L 19.964 -0.761852L 18.7895 -2.75378L 17.4494 -0.869286L 18.6719 0ZM 31.2656 21.3594L 31.4531 22.8476L 33.7163 22.5625L 32.5577 20.5975L 31.2656 21.3594ZM 19.4844 22.8438L 19.2969 21.3555L 18.655 21.4364L 18.2733 21.9587L 19.4844 22.8438ZM 12.4844 32.4219L 11.192 33.1834L 12.3498 35.1482L 13.6954 33.3069L 12.4844 32.4219ZM -1.90735e-06 11.2344L -0.20358 9.74825L -2.43647 10.0541L -1.29234 11.9959L -1.90735e-06 11.2344ZM 17.3797 0.761852L 29.9735 22.1212L 32.5577 20.5975L 19.964 -0.761852L 17.3797 0.761852ZM 31.0781 19.8711L 19.2969 21.3555L 19.6719 24.332L 31.4531 22.8476L 31.0781 19.8711ZM 18.2733 21.9587L 11.2733 31.5368L 13.6954 33.3069L 20.6954 23.7288L 18.2733 21.9587ZM 13.7767 31.6604L 1.29234 10.4729L -1.29234 11.9959L 11.192 33.1834L 13.7767 31.6604ZM 0.203576 12.7205C 8.59792 11.5706 15.1542 7.535 19.8943 0.869286L 17.4494 -0.869286C 13.1895 5.12125 7.37082 8.71066 -0.20358 9.74825L 0.203576 12.7205Z"/>
</defs>
</svg>
