<svg width="150" height="150" viewBox="0 0 150 150" version="1.1" xmlns="http://www.w3.org/2000/svg" xmlns:xlink="http://www.w3.org/1999/xlink">
<title>2</title>
<desc>Created using Figma</desc>
<g id="Canvas" transform="translate(-301 1384)">
<g id="2">
<g id="Ellipse">
<use xlink:href="#path0_fill" transform="translate(301 -1384)" fill="#2980B9"/>
</g>
<g id="Background">
<use xlink:href="#path1_fill" transform="translate(344 -1349)" fill="#FFFFFF"/>
<use xlink:href="#path2_fill" transform="translate(344 -1349)" fill="#FFFFFF"/>
<use xlink:href="#path3_fill" transform="translate(344 -1349)" fill="#FFFFFF"/>
<use xlink:href="#path4_fill" transform="translate(344 -1349)" fill="#FFFFFF"/>
<use xlink:href="#path5_fill" transform="translate(344 -1349)" fill="#FFFFFF"/>
<use xlink:href="#path6_fill" transform="translate(344 -1349)" fill="#FFFFFF"/>
<use xlink:href="#path7_fill" transform="translate(344 -1349)" fill="#FFFFFF"/>
</g>
</g>
</g>
<defs>
<path id="path0_fill" d="M 150 75C 150 116.421 116.421 150 75 150C 33.5786 150 0 116.421 0 75C 0 33.5786 33.5786 0 75 0C 116.421 0 150 33.5786 150 75Z"/>
<path id="path1_fill" fill-rule="evenodd" d="M 4 0C 1.79082 0 0 1.79086 0 4L 0 76C 0 78.2091 1.79082 80 4 80L 60 80C 62.2092 80 64 78.2091 64 76L 64 4C 64 1.79086 62.2092 0 60 0L 4 0ZM 22.4 1.6L 4 1.6C 2.67451 1.6 1.6 2.67451 1.6 4L 1.6 20L 22.4 20L 22.4 1.6ZM 24 1.6L 24 20L 62.4 20L 62.4 4C 62.4 2.67451 61.3255 1.6 60 1.6L 24 1.6ZM 1.6 76L 1.6 21.6L 62.4 21.6L 62.4 76C 62.4 77.3255 61.3255 78.4 60 78.4L 4 78.4C 2.67451 78.4 1.6 77.3255 1.6 76Z"/>
<path id="path2_fill" fill-rule="evenodd" d="M 18.4 12L 5.6 12L 5.6 16.8L 18.4 16.8L 18.4 12ZM 4 10.4L 4 18.4L 20 18.4L 20 10.4L 4 10.4Z"/>
<path id="path3_fill" fill-rule="evenodd" d="M 54.8 16.8C 56.7882 16.8 58.4 15.1882 58.4 13.2C 58.4 11.2118 56.7882 9.6 54.8 9.6C 52.8118 9.6 51.2 11.2118 51.2 13.2C 51.2 15.1882 52.8118 16.8 54.8 16.8ZM 54.8 18.4C 57.6719 18.4 60 16.0719 60 13.2C 60 10.3281 57.6719 8 54.8 8C 51.9281 8 49.6 10.3281 49.6 13.2C 49.6 16.0719 51.9281 18.4 54.8 18.4Z"/>
<path id="path4_fill" fill-rule="evenodd" d="M 29.2 17.6C 30.3046 17.6 31.2 16.7046 31.2 15.6C 31.2 14.4954 30.3046 13.6 29.2 13.6C 28.0954 13.6 27.2 14.4954 27.2 15.6C 27.2 16.7046 28.0954 17.6 29.2 17.6ZM 29.2 18.4C 30.7464 18.4 32 17.1464 32 15.6C 32 14.0536 30.7464 12.8 29.2 12.8C 27.6536 12.8 26.4 14.0536 26.4 15.6C 26.4 17.1464 27.6536 18.4 29.2 18.4Z"/>
<path id="path5_fill" fill-rule="evenodd" d="M 36.4 17.6C 37.5046 17.6 38.4 16.7046 38.4 15.6C 38.4 14.4954 37.5046 13.6 36.4 13.6C 35.2954 13.6 34.4 14.4954 34.4 15.6C 34.4 16.7046 35.2954 17.6 36.4 17.6ZM 36.4 18.4C 37.9464 18.4 39.2 17.1464 39.2 15.6C 39.2 14.0536 37.9464 12.8 36.4 12.8C 34.8536 12.8 33.6 14.0536 33.6 15.6C 33.6 17.1464 34.8536 18.4 36.4 18.4Z"/>
<path id="path6_fill" fill-rule="evenodd" d="M 43.6 17.6C 44.7046 17.6 45.6 16.7046 45.6 15.6C 45.6 14.4954 44.7046 13.6 43.6 13.6C 42.4954 13.6 41.6 14.4954 41.6 15.6C 41.6 16.7046 42.4954 17.6 43.6 17.6ZM 43.6 18.4C 45.1464 18.4 46.4 17.1464 46.4 15.6C 46.4 14.0536 45.1464 12.8 43.6 12.8C 42.0536 12.8 40.8 14.0536 40.8 15.6C 40.8 17.1464 42.0536 18.4 43.6 18.4Z"/>
<path id="path7_fill" fill-rule="evenodd" d="M 52 45.6C 52 56.6457 43.0457 65.6 32 65.6C 20.9543 65.6 12 56.6457 12 45.6C 12 34.5543 20.9543 25.6 32 25.6C 43.0457 25.6 52 34.5543 52 45.6ZM 48.1632 54.4C 45.0426 60.1196 38.9744 64 32 64C 25.0256 64 18.9574 60.1196 15.8368 54.4L 20.6009 54.4C 23.2345 57.8064 27.361 60 32 60C 36.639 60 40.7655 57.8064 43.3991 54.4L 48.1632 54.4ZM 48.8 53.1158C 49.8282 50.8211 50.4 48.2773 50.4 45.6C 50.4 35.438 42.162 27.2 32 27.2C 21.838 27.2 13.6 35.438 13.6 45.6C 13.6 48.2773 14.1718 50.8211 15.2 53.1158L 15.2 52.8L 19.5265 52.8C 18.3013 50.682 17.6 48.2229 17.6 45.6C 17.6 37.6471 24.0471 31.2 32 31.2C 39.9529 31.2 46.4 37.6471 46.4 45.6C 46.4 48.2229 45.6987 50.682 44.4735 52.8L 48.8 52.8L 48.8 53.1158ZM 44.8 45.6C 44.8 52.6692 39.0692 58.4 32 58.4C 24.9308 58.4 19.2 52.6692 19.2 45.6C 19.2 38.5307 24.9308 32.8 32 32.8C 39.0692 32.8 44.8 38.5307 44.8 45.6Z"/>
</defs>
</svg>
