<svg width="150" height="150" viewBox="0 0 150 150" version="1.1" xmlns="http://www.w3.org/2000/svg" xmlns:xlink="http://www.w3.org/1999/xlink">
<title>3</title>
<desc>Created using Figma</desc>
<g id="Canvas" transform="translate(-490 1384)">
<g id="3">
<g id="Ellipse">
<use xlink:href="#path0_fill" transform="translate(490 -1384)" fill="#2980B9"/>
</g>
<g id="if_worker_309034">
<g id="Vector">
<mask id="mask0_outline_ins">
<use xlink:href="#path1_fill" fill="white" transform="translate(519 -1339)"/>
</mask>
<g mask="url(#mask0_outline_ins)">
<use xlink:href="#path2_stroke_2x" transform="translate(519 -1339)" fill="#FFFFFF"/>
</g>
</g>
</g>
</g>
</g>
<defs>
<path id="path0_fill" d="M 150 75C 150 116.421 116.421 150 75 150C 33.5786 150 0 116.421 0 75C 0 33.5786 33.5786 0 75 0C 116.421 0 150 33.5786 150 75Z"/>
<path id="path1_fill" d="M 86.7 43.8462C 86.7 16.1538 62.5909 9.23077 62.5909 9.23077L 55.1727 23.0769L 55.1727 4.61538C 55.1727 1.84615 53.3182 0 50.5364 0L 41.2636 0C 38.4818 0 36.6273 1.84615 36.6273 4.61538L 36.6273 23.0769L 29.6727 9.23077C 29.6727 9.23077 5.56364 16.1538 5.56364 43.8462C 5.56364 43.8462 -4.42158e-07 44.7692 -4.42158e-07 55.3846C -4.42158e-07 55.3846 13.9091 60 46.3636 60C 78.8182 60 92.7273 55.3846 92.7273 55.3846C 92.2636 44.7692 86.7 43.8462 86.7 43.8462Z"/>
<path id="path2_stroke_2x" d="M 86.7 43.8462L 85.2 43.8462L 85.2 45.1178L 86.4545 45.3259L 86.7 43.8462ZM 62.5909 9.23077L 63.0049 7.78903L 61.8407 7.45473L 61.2687 8.52239L 62.5909 9.23077ZM 55.1727 23.0769L 53.6727 23.0769L 56.4949 23.7853L 55.1727 23.0769ZM 36.6273 23.0769L 35.2869 23.7502L 38.1273 23.0769L 36.6273 23.0769ZM 29.6727 9.23077L 31.0131 8.55751L 30.4547 7.44561L 29.2587 7.78903L 29.6727 9.23077ZM 5.56364 43.8462L 5.80915 45.3259L 7.06364 45.1178L 7.06364 43.8462L 5.56364 43.8462ZM -4.42158e-07 55.3846L -1.5 55.3846L -1.5 56.4673L -0.472409 56.8083L -4.42158e-07 55.3846ZM 92.7273 55.3846L 93.1997 56.8083L 94.2753 56.4514L 94.2258 55.3192L 92.7273 55.3846ZM 88.2 43.8462C 88.2 29.4959 81.9277 20.4474 75.6245 15.0174C 72.4883 12.3157 69.3558 10.517 67.0055 9.39217C 65.8289 8.82905 64.8439 8.43272 64.1464 8.17517C 63.7974 8.04635 63.52 7.95208 63.3259 7.88891C 63.2288 7.85733 63.1525 7.8335 63.0986 7.817C 63.0716 7.80875 63.0502 7.80233 63.0345 7.79769C 63.0266 7.79536 63.0203 7.79349 63.0153 7.79205C 63.0128 7.79133 63.0107 7.79072 63.009 7.79022C 63.0081 7.78996 63.0071 7.78967 63.0067 7.78954C 63.0058 7.78928 63.0049 7.78903 62.5909 9.23077C 62.1769 10.6725 62.1762 10.6723 62.1757 10.6722C 62.1756 10.6721 62.1751 10.672 62.175 10.672C 62.1747 10.6719 62.1748 10.6719 62.1753 10.672C 62.1762 10.6723 62.1785 10.673 62.1823 10.6741C 62.1898 10.6763 62.2029 10.6803 62.2216 10.686C 62.2588 10.6973 62.3179 10.7158 62.3975 10.7416C 62.5565 10.7934 62.797 10.8749 63.1073 10.9895C 63.7282 11.2187 64.6268 11.5796 65.7104 12.0982C 67.8805 13.1368 70.7753 14.7997 73.6664 17.2903C 79.4178 22.2449 85.2 30.5041 85.2 43.8462L 88.2 43.8462ZM 61.2687 8.52239L 53.8505 22.3685L 56.4949 23.7853L 63.9131 9.93915L 61.2687 8.52239ZM 56.6727 23.0769L 56.6727 4.61538L 53.6727 4.61538L 53.6727 23.0769L 56.6727 23.0769ZM 56.6727 4.61538C 56.6727 2.88785 56.0875 1.3326 54.956 0.206168C 53.825 -0.919664 52.2661 -1.5 50.5364 -1.5L 50.5364 1.5C 51.5884 1.5 52.3477 1.84274 52.8395 2.33229C 53.3306 2.82124 53.6727 3.57369 53.6727 4.61538L 56.6727 4.61538ZM 50.5364 -1.5L 41.2636 -1.5L 41.2636 1.5L 50.5364 1.5L 50.5364 -1.5ZM 41.2636 -1.5C 39.5339 -1.5 37.975 -0.919664 36.844 0.206169C 35.7125 1.3326 35.1273 2.88785 35.1273 4.61538L 38.1273 4.61538C 38.1273 3.57369 38.4694 2.82124 38.9605 2.33229C 39.4523 1.84274 40.2116 1.5 41.2636 1.5L 41.2636 -1.5ZM 35.1273 4.61538L 35.1273 23.0769L 38.1273 23.0769L 38.1273 4.61538L 35.1273 4.61538ZM 37.9677 22.4037L 31.0131 8.55751L 28.3323 9.90403L 35.2869 23.7502L 37.9677 22.4037ZM 29.6727 9.23077C 29.2587 7.78903 29.2579 7.78928 29.257 7.78954C 29.2565 7.78967 29.2555 7.78996 29.2546 7.79022C 29.2529 7.79072 29.2508 7.79133 29.2483 7.79205C 29.2434 7.79349 29.237 7.79536 29.2292 7.79769C 29.2135 7.80233 29.1921 7.80875 29.1651 7.817C 29.1111 7.8335 29.0348 7.85733 28.9378 7.88891C 28.7437 7.95208 28.4662 8.04635 28.1173 8.17517C 27.4197 8.43272 26.4347 8.82905 25.2581 9.39217C 22.9078 10.517 19.7753 12.3157 16.6392 15.0174C 10.3359 20.4474 4.06364 29.4959 4.06364 43.8462L 7.06364 43.8462C 7.06364 30.5041 12.8459 22.2449 18.5972 17.2903C 21.4883 14.7997 24.3831 13.1368 26.5532 12.0982C 27.6369 11.5796 28.5354 11.2187 29.1563 10.9895C 29.4666 10.8749 29.7071 10.7934 29.8662 10.7416C 29.9457 10.7158 30.0048 10.6973 30.0421 10.686C 30.0607 10.6803 30.0738 10.6763 30.0814 10.6741C 30.0851 10.673 30.0874 10.6723 30.0884 10.672C 30.0888 10.6719 30.0889 10.6719 30.0886 10.672C 30.0885 10.672 30.088 10.6721 30.088 10.6722C 30.0874 10.6723 30.0867 10.6725 29.6727 9.23077ZM 5.56364 43.8462C 5.31812 42.3664 5.31676 42.3666 5.31537 42.3668C 5.31488 42.3669 5.31347 42.3672 5.31249 42.3673C 5.31052 42.3677 5.30846 42.368 5.30631 42.3684C 5.30202 42.3691 5.29737 42.37 5.29237 42.3709C 5.28236 42.3727 5.27096 42.3748 5.25819 42.3773C 5.23267 42.3823 5.20168 42.3888 5.16561 42.3971C 5.09349 42.4137 5.00084 42.4374 4.89066 42.4707C 4.6704 42.5372 4.37896 42.6425 4.04093 42.806C 3.36214 43.1345 2.50275 43.695 1.66295 44.6355C -0.0343548 46.5364 -1.5 49.8115 -1.5 55.3846L 1.5 55.3846C 1.5 50.3424 2.81617 47.8482 3.90068 46.6337C 4.45179 46.0165 4.98331 45.6828 5.3477 45.5065C 5.53127 45.4176 5.67448 45.3678 5.75849 45.3424C 5.80043 45.3297 5.82732 45.3233 5.8367 45.3211C 5.84137 45.32 5.84163 45.32 5.83716 45.3209C 5.83492 45.3214 5.8315 45.322 5.82684 45.3229C 5.82451 45.3233 5.82188 45.3238 5.81893 45.3243C 5.81746 45.3245 5.81591 45.3248 5.81428 45.3251C 5.81346 45.3252 5.81218 45.3254 5.81177 45.3255C 5.81047 45.3257 5.80915 45.3259 5.56364 43.8462ZM -4.42158e-07 55.3846C -0.472409 56.8083 -0.471871 56.8085 -0.47128 56.8087C -0.471012 56.8087 -0.470368 56.809 -0.469833 56.8091C -0.468761 56.8095 -0.467478 56.8099 -0.465981 56.8104C -0.462988 56.8114 -0.459144 56.8126 -0.454446 56.8142C -0.44505 56.8172 -0.432241 56.8214 -0.416001 56.8266C -0.38352 56.837 -0.337315 56.8515 -0.277244 56.87C -0.157102 56.907 0.0184982 56.9597 0.250687 57.0257C 0.715068 57.1578 1.40577 57.3435 2.33184 57.5647C 4.18399 58.0072 6.97738 58.592 10.7843 59.175C 18.3982 60.3411 30.0652 61.5 46.3636 61.5L 46.3636 58.5C 30.2075 58.5 18.6927 57.3512 11.2384 56.2096C 7.51125 55.6388 4.79897 55.0697 3.02896 54.6468C 2.14394 54.4354 1.49445 54.2605 1.0714 54.1402C 0.859875 54.08 0.704953 54.0335 0.605502 54.0029C 0.555776 53.9875 0.519916 53.9762 0.497782 53.9691C 0.486714 53.9656 0.479078 53.9631 0.474855 53.9617C 0.472744 53.9611 0.471485 53.9606 0.471078 53.9605C 0.470875 53.9604 0.470884 53.9604 0.471106 53.9605C 0.471217 53.9606 0.471542 53.9607 0.471598 53.9607C 0.471976 53.9608 0.472408 53.9609 -4.42158e-07 55.3846ZM 46.3636 61.5C 62.6621 61.5 74.3291 60.3411 81.943 59.175C 85.7499 58.592 88.5433 58.0072 90.3954 57.5647C 91.3215 57.3435 92.0122 57.1578 92.4766 57.0257C 92.7088 56.9597 92.8844 56.907 93.0045 56.87C 93.0646 56.8515 93.1108 56.837 93.1433 56.8266C 93.1595 56.8214 93.1723 56.8172 93.1817 56.8142C 93.1864 56.8126 93.1903 56.8114 93.1933 56.8104C 93.1947 56.8099 93.196 56.8095 93.1971 56.8091C 93.1976 56.809 93.1983 56.8087 93.1986 56.8087C 93.1991 56.8085 93.1997 56.8083 92.7273 55.3846C 92.2549 53.9609 92.2553 53.9608 92.2557 53.9607C 92.2557 53.9607 92.2561 53.9606 92.2562 53.9605C 92.2564 53.9604 92.2564 53.9604 92.2562 53.9605C 92.2558 53.9606 92.2545 53.9611 92.2524 53.9617C 92.2482 53.9631 92.2406 53.9656 92.2295 53.9691C 92.2074 53.9762 92.1715 53.9875 92.1218 54.0029C 92.0223 54.0335 91.8674 54.08 91.6559 54.1402C 91.2328 54.2605 90.5833 54.4354 89.6983 54.6468C 87.9283 55.0697 85.216 55.6388 81.4888 56.2096C 74.0345 57.3512 62.5197 58.5 46.3636 58.5L 46.3636 61.5ZM 94.2258 55.3192C 93.9825 49.7467 92.3855 46.4917 90.6381 44.613C 89.7727 43.6826 88.9044 43.1279 88.2227 42.8025C 87.883 42.6404 87.5915 42.5361 87.3715 42.47C 87.2615 42.4369 87.1691 42.4134 87.0973 42.3969C 87.0613 42.3887 87.0305 42.3822 87.0051 42.3773C 86.9924 42.3748 86.981 42.3726 86.9711 42.3708C 86.9661 42.3699 86.9615 42.3691 86.9572 42.3684C 86.9551 42.368 86.9531 42.3677 86.9511 42.3673C 86.9501 42.3672 86.9487 42.3669 86.9482 42.3668C 86.9469 42.3666 86.9455 42.3664 86.7 43.8462C 86.4545 45.3259 86.4532 45.3257 86.4519 45.3255C 86.4515 45.3254 86.4502 45.3252 86.4494 45.3251C 86.4478 45.3248 86.4462 45.3245 86.4448 45.3243C 86.4419 45.3238 86.4393 45.3233 86.437 45.3229C 86.4324 45.3221 86.429 45.3214 86.4269 45.321C 86.4225 45.3202 86.423 45.3202 86.4279 45.3213C 86.4378 45.3236 86.4654 45.3302 86.5084 45.3431C 86.5945 45.369 86.7412 45.4197 86.9305 45.51C 87.3064 45.6894 87.858 46.0289 88.4414 46.6562C 89.5917 47.8929 91.0084 50.4071 91.2287 55.4501L 94.2258 55.3192Z"/>
</defs>
</svg>
