<svg width="192" height="57" viewBox="0 0 192 57" fill="none" xmlns="http://www.w3.org/2000/svg">
<path fill-rule="evenodd" clip-rule="evenodd" d="M0.325317 28.0642L8.57184 19.8346C11.1272 22.3724 14.1606 24.426 17.5242 25.847L12.9801 40.7701L0.325317 28.0642ZM14.8072 42.6046L28.2526 56.1962L41.8797 42.6063L37.0519 26.7516C34.3578 27.6044 31.49 28.0642 28.5152 28.0642C25.4249 28.0642 22.45 27.568 19.6653 26.6505L14.8072 42.6046ZM56.3634 28.0642L43.7068 40.7718L39.2008 25.9739C42.6325 24.5714 45.729 22.5136 48.3363 19.9553L56.3634 28.0642ZM46.1683 17.7653C43.9126 19.9741 41.2472 21.7633 38.2974 23.0069L32.4542 4.37607L46.1683 17.7653ZM36.1525 23.798C33.7429 24.5636 31.1771 24.9766 28.5152 24.9766C25.7377 24.9766 23.0649 24.527 20.5649 23.6963L27.4894 0.955949L28.2526 0L29.0404 0.955949L36.1525 23.798ZM24.0622 4.37607L10.7531 17.6579C12.9544 19.8396 15.5525 21.6187 18.4288 22.8763L24.0622 4.37607Z" fill="white"/>
<path d="M85.3753 34.0328H72.8713L70.2832 39.9151H66.821L77.4763 16.3862H80.8039L91.4928 39.9151H87.9634L85.3753 34.0328ZM84.1988 31.3438L79.1233 19.8147L74.0478 31.3438H84.1988Z" fill="white"/>
<path d="M116.918 16.3862V39.9151H114.162L100.045 22.3692V39.9151H96.6833V16.3862H99.4395L113.557 33.932V16.3862H116.918Z" fill="white"/>
<path d="M141.944 28.0162H145.17V37.1924C144.005 38.156 142.649 38.8955 141.103 39.4109C139.557 39.9263 137.944 40.184 136.263 40.184C133.888 40.184 131.748 39.6686 129.843 38.6378C127.938 37.5846 126.437 36.1504 125.339 34.3354C124.263 32.4979 123.726 30.4363 123.726 28.1506C123.726 25.865 124.263 23.8034 125.339 21.9659C126.437 20.1284 127.938 18.6943 129.843 17.6635C131.77 16.6327 133.933 16.1173 136.33 16.1173C138.213 16.1173 139.916 16.431 141.439 17.0584C142.986 17.6635 144.296 18.5598 145.372 19.7475L143.288 21.8314C141.406 20.0164 139.131 19.1088 136.465 19.1088C134.672 19.1088 133.059 19.501 131.624 20.2853C130.213 21.0471 129.104 22.1227 128.297 23.5121C127.49 24.879 127.087 26.4252 127.087 28.1506C127.087 29.8537 127.49 31.3999 128.297 32.7892C129.104 34.1561 130.213 35.2317 131.624 36.016C133.059 36.8003 134.661 37.1924 136.431 37.1924C138.538 37.1924 140.375 36.6883 141.944 35.6799V28.0162Z" fill="white"/>
<path d="M153.287 16.3862H156.648V36.9908H169.387V39.9151H153.287V16.3862Z" fill="white"/>
<path d="M192 36.9908V39.9151H174.925V16.3862H191.529V19.3105H178.286V26.5372H190.084V29.3943H178.286V36.9908H192Z" fill="white"/>
</svg>
