<svg width="209" height="50" xmlns="http://www.w3.org/2000/svg" xmlns:xlink="http://www.w3.org/1999/xlink"><g transform="translate(57 14)"><use xlink:href="#path0_fill"/><use xlink:href="#path1_fill"/><use xlink:href="#path2_fill"/><use xlink:href="#path3_fill"/><use xlink:href="#path4_fill"/><use xlink:href="#path5_fill"/><use xlink:href="#path6_fill"/><use xlink:href="#path7_fill"/></g><use xlink:href="#path8_fill" fill="#2980B9"/><g transform="translate(7 14)" fill="#FFF"><use xlink:href="#path9_fill"/><use xlink:href="#path10_fill"/></g><defs><path id="path0_fill" d="M14.94 17.19l.39 3.39c-1.8.56-4.01.84-6.63.84-3.2 0-5.45-.8-6.75-2.4C.65 17.42 0 14.65 0 10.71 0 6.77.65 4 1.95 2.4 3.25.8 5.5 0 8.7 0c2.32 0 4.39.23 6.21.69l-.39 3.42c-1.62-.1-3.56-.15-5.82-.15-1.5 0-2.53.48-3.09 1.44-.54.94-.81 2.71-.81 5.31 0 2.6.27 4.38.81 5.34.56.94 1.59 1.41 3.09 1.41 2.78 0 4.86-.09 6.24-.27z"/><path id="path1_fill" d="M33.658 4.08h-6.18v16.98h-4.59V4.08h-6.18V.36h16.95v3.72z"/><path id="path2_fill" d="M53.356 21.06h-4.38V8.7c0-.92.09-1.85.27-2.79h-.21c-.3.92-.69 1.83-1.17 2.73l-6.99 12.42h-4.53V.36h4.35v12.15c0 .86-.08 1.82-.24 2.88h.18c.26-.76.66-1.66 1.2-2.7L48.826.36h4.53v20.7z"/><path id="path3_fill" d="M57.644 21.06V.36c1.86-.18 4.49-.27 7.89-.27 2.88 0 4.85.47 5.91 1.41 1.08.94 1.62 2.72 1.62 5.34 0 2.62-.51 4.41-1.53 5.37-1 .94-2.8 1.41-5.4 1.41-1.32 0-2.62-.08-3.9-.24v7.68h-4.59zm4.59-10.95h3.18c1.2-.02 2.01-.25 2.43-.69.42-.44.63-1.3.63-2.58s-.21-2.14-.63-2.58c-.42-.44-1.23-.66-2.43-.66l-3.18.03v6.48z"/><path id="path4_fill" d="M86.295 15.63h-7.11l-1.5 5.43h-4.68l5.97-19.5c.08-.36.27-.65.57-.87.3-.22.64-.33 1.02-.33h4.32c.86 0 1.39.4 1.59 1.2l5.97 19.5h-4.65l-1.5-5.43zm-.99-3.54l-1.74-6.33c-.24-1-.38-1.65-.42-1.95h-.81c-.04.2-.11.52-.21.96-.1.44-.18.77-.24.99l-1.74 6.33h5.16z"/><path id="path5_fill" d="M110.696.36v20.7h-4.59V3.66h-2.64c-1.18 0-1.81.58-1.89 1.74-.26 3.1-.51 5.46-.75 7.08-.22 1.62-.56 3.01-1.02 4.17-1.22 3.4-3.51 4.9-6.87 4.5l-.33-3.54c.78-.14 1.4-.37 1.86-.69.48-.32.85-.82 1.11-1.5.4-1.06.71-2.34.93-3.84.22-1.52.45-3.76.69-6.72.22-3 1.84-4.5 4.86-4.5h8.64z"/><path id="path6_fill" d="M124.279 10.2v.12c.38.06.73.13 1.05.21.32.06.62.17.9.33.3.16.56.3.78.42.22.12.44.34.66.66.24.3.43.54.57.72.16.18.34.51.54.99.22.48.39.86.51 1.14.12.26.29.73.51 1.41.24.68.42 1.21.54 1.59.12.36.32.98.6 1.86.2.62.35 1.09.45 1.41h-4.77c-1.12-3.66-1.88-5.9-2.28-6.72-.62-1.26-1.4-2.01-2.34-2.25-.36-.1-.77-.15-1.23-.15h-1.47c.16.74.24 1.4.24 1.98v7.14h-4.56V.36h4.56v5.85c0 .78-.08 1.6-.24 2.46h1.41c1.42 0 2.44-.54 3.06-1.62.64-1.08 1.42-3.21 2.34-6.39.04-.14.07-.24.09-.3h4.65c-1.12 3.52-1.83 5.61-2.13 6.27-.7 1.56-1.58 2.59-2.64 3.09-.5.22-1.1.38-1.8.48z"/><path id="path7_fill" d="M145.269 15.63h-7.11l-1.5 5.43h-4.68l5.97-19.5c.08-.36.27-.65.57-.87.3-.22.64-.33 1.02-.33h4.32c.86 0 1.39.4 1.59 1.2l5.97 19.5h-4.65l-1.5-5.43zm-.99-3.54l-1.74-6.33c-.24-1-.38-1.65-.42-1.95h-.81c-.04.2-.11.52-.21.96-.1.44-.18.77-.24.99l-1.74 6.33h5.16z"/><path id="path8_fill" d="M0 5a5 5 0 0 1 5-5h40a5 5 0 0 1 5 5v40a5 5 0 0 1-5 5H5a5 5 0 0 1-5-5V5z"/><path id="path9_fill" d="M16.95 4.11h-6.18v16.98H6.18V4.11H0V.39h16.95v3.72z"/><path id="path10_fill" d="M20.602 2.31C21.902.77 24.212 0 27.532 0s5.63.77 6.93 2.31c1.3 1.52 1.95 4.33 1.95 8.43s-.65 6.92-1.95 8.46c-1.3 1.52-3.61 2.28-6.93 2.28s-5.63-.76-6.93-2.28c-1.28-1.54-1.92-4.36-1.92-8.46 0-4.1.64-6.91 1.92-8.43zm10.11 2.85c-.56-.98-1.62-1.47-3.18-1.47s-2.63.49-3.21 1.47c-.56.98-.84 2.84-.84 5.58s.28 4.6.84 5.58c.58.98 1.65 1.47 3.21 1.47s2.62-.49 3.18-1.47c.58-.98.87-2.84.87-5.58s-.29-4.6-.87-5.58z"/></defs></svg>