<svg id="Слой_1" data-name="Слой 1" xmlns="http://www.w3.org/2000/svg" viewBox="0 0 324 54"><defs><style>.cls-1{fill:#c90c0b;fill-rule:evenodd;}.cls-2{fill:#6e6e6e;}</style></defs><title>logotype</title><path class="cls-1" d="M37.42,32.64a5.66,5.66,0,0,1,.24,3.17C36.56,38.47,34.6,37,31,39.88c-4.54,3.61-1.79,6.94-1.79,6.94a3.81,3.81,0,0,1,3.69-3.59c2.35,0,6-.49,7.3-4.25C41.43,35.5,37.42,32.64,37.42,32.64ZM54.71,6.38a12.5,12.5,0,0,1-3.27,4.37c-2.61,2-6.44,2.87-8.43.12-3.61-5-.3-11,6.23-9.52,0,0-5.5-5.44-12.41,5.51s-12.13,5-12.48,3.89-2.1-7.08,8.74-8.26c0,0-8.45-6.18-18.6,3.41A13.61,13.61,0,0,1,7.88,9.73H5.76a1.2,1.2,0,0,0-1.19,1.2v3.65a1.19,1.19,0,0,0,1.19,1.19H7V18H4.16A4.18,4.18,0,0,0,0,22.23V49.81A4.17,4.17,0,0,0,4.16,54H16.69a3.65,3.65,0,0,0,.88-.1c2.23-.33,7.94-1.83,8.74-8.4,1-8.17,3.51-7.53,3.51-7.53s-3.36-1.4-5.82,2.87c0,0-3.07-4.16,4.63-6.58,3.91-1.23,5.81-5.75,4.16-7.9,0,0-3.44,6.68-5.7,1.2s6.46-11,13.66-10.41S55.24,13,54.71,6.38ZM19.54,23.55c0,5.38-1.11,4.88-1.75,3.4a5.46,5.46,0,0,1-.45-2A3.33,3.33,0,0,0,14,21.4c-1,0-3-1.92.71-1.92C18.08,19.48,19.54,21.7,19.54,23.55Zm-7.24-12a1.18,1.18,0,0,1,1.18-1.19H15a1.19,1.19,0,0,1,1.19,1.19V14A1.19,1.19,0,0,1,15,15.17H13.48A1.18,1.18,0,0,1,12.3,14Zm-.06,40c-5.58,0-1-2.64-1-2.64,4.82-3.67,6.42-11.78,6.53-14.95.08-2.18,1.12-2.05,1.6-1.44.23.29.12,1.08.12,1.08s.06,9.48.06,13C19.6,51.48,16.54,51.59,12.24,51.55Z" transform="translate(0 0)"/><path d="M60.64,7.79h7.53a17.64,17.64,0,0,1,4.7.48,5.17,5.17,0,0,1,2.47,1.37,4.7,4.7,0,0,1,1.12,2.17,18.9,18.9,0,0,1,.29,3.94v2.48a10.49,10.49,0,0,1-.56,4,3.87,3.87,0,0,1-2.09,1.91,9.89,9.89,0,0,1-4,.67h-2V36.25H60.64Zm7.48,4.87V19.9l.55,0a1.74,1.74,0,0,0,1.43-.5,3.63,3.63,0,0,0,.4-2.08V15A2.72,2.72,0,0,0,70,13.1,3,3,0,0,0,68.12,12.66Z" transform="translate(0 0)"/><path d="M97.81,24.46a59.76,59.76,0,0,1-.21,6.07,6.77,6.77,0,0,1-1.27,3.26,7,7,0,0,1-2.91,2.27,10.79,10.79,0,0,1-4.26.79A10.92,10.92,0,0,1,85,36.1a6.86,6.86,0,0,1-3-2.24,6.75,6.75,0,0,1-1.33-3.25,60.41,60.41,0,0,1-.21-6.15V19.59q0-4.29.2-6.08A6.78,6.78,0,0,1,82,10.25,7,7,0,0,1,84.9,8a10.79,10.79,0,0,1,4.26-.79,10.92,10.92,0,0,1,4.15.75,6.85,6.85,0,0,1,3,2.24,6.76,6.76,0,0,1,1.34,3.25,60.64,60.64,0,0,1,.21,6.16ZM90.33,15.1a8.71,8.71,0,0,0-.22-2.54.88.88,0,0,0-.92-.55,1,1,0,0,0-.89.45A6.24,6.24,0,0,0,88,15.1V28.39a12.86,12.86,0,0,0,.2,3.06.89.89,0,0,0,1,.58.92.92,0,0,0,1-.67,14.06,14.06,0,0,0,.21-3.18Z" transform="translate(0 0)"/><path d="M102.42,7.79H110a17.74,17.74,0,0,1,4.7.48,5.18,5.18,0,0,1,2.46,1.37,4.52,4.52,0,0,1,1.12,2.17,18.75,18.75,0,0,1,.3,3.94v2.48a10.26,10.26,0,0,1-.57,4,3.87,3.87,0,0,1-2.09,1.91,9.85,9.85,0,0,1-4,.67h-2V36.25h-7.47Zm7.47,4.87V19.9l.55,0a1.74,1.74,0,0,0,1.43-.5,3.63,3.63,0,0,0,.4-2.08V15a2.72,2.72,0,0,0-.46-1.9A2.93,2.93,0,0,0,109.89,12.66Z" transform="translate(0 0)"/><path d="M122.49,7.79H130a17.61,17.61,0,0,1,4.69.48,5.17,5.17,0,0,1,2.47,1.37,4.61,4.61,0,0,1,1.12,2.17,18.9,18.9,0,0,1,.29,3.94v2.48a10.29,10.29,0,0,1-.56,4A3.87,3.87,0,0,1,136,24.12a9.89,9.89,0,0,1-4,.67h-2V36.25h-7.48ZM130,12.66V19.9l.55,0a1.74,1.74,0,0,0,1.43-.5,3.63,3.63,0,0,0,.4-2.08V15a2.72,2.72,0,0,0-.46-1.9A3,3,0,0,0,130,12.66Z" transform="translate(0 0)"/><path d="M142.57,7.79H155v5.7h-5v5.39h4.67V24.3h-4.67v6.25h5.49v5.7h-13Z" transform="translate(0 0)"/><path d="M159.51,7.79h5.29A40.7,40.7,0,0,1,172,8.2,4.85,4.85,0,0,1,175,10.26c.79,1.11,1.18,2.87,1.18,5.3,0,2.22-.27,3.7-.83,4.47s-1.65,1.21-3.29,1.37a5.64,5.64,0,0,1,3,1.46,4.31,4.31,0,0,1,1,1.67,27.25,27.25,0,0,1,.18,4.21v7.51h-6.94V26.79A6.56,6.56,0,0,0,168.9,24c-.25-.36-.88-.54-1.92-.54V36.25h-7.47ZM167,12.66V19a3.38,3.38,0,0,0,1.77-.34c.34-.23.51-1,.51-2.23V14.86a2.35,2.35,0,0,0-.49-1.78A2.81,2.81,0,0,0,167,12.66Z" transform="translate(0 0)"/><path d="M196.76,16.4h-6.94V14.29a4.06,4.06,0,0,0-.27-1.88,1,1,0,0,0-.89-.4,1.12,1.12,0,0,0-1,.55,3.13,3.13,0,0,0-.34,1.65,4.63,4.63,0,0,0,.38,2.14,5.53,5.53,0,0,0,2.12,1.74c3.33,2,5.42,3.56,6.29,4.82s1.29,3.27,1.29,6.06a10.59,10.59,0,0,1-.72,4.49,5.54,5.54,0,0,1-2.78,2.41,11.07,11.07,0,0,1-4.79,1A10.86,10.86,0,0,1,184,35.72a5.56,5.56,0,0,1-2.78-2.86,14.8,14.8,0,0,1-.65-4.94V26.05h6.94v3.47a4.39,4.39,0,0,0,.3,2.05,1.11,1.11,0,0,0,1,.46,1.21,1.21,0,0,0,1.11-.58,3.21,3.21,0,0,0,.37-1.72c0-1.68-.23-2.77-.69-3.29a22.34,22.34,0,0,0-3.5-2.58,35.33,35.33,0,0,1-3.7-2.66,6.29,6.29,0,0,1-1.5-2.28,10.12,10.12,0,0,1-.59-3.73,10.28,10.28,0,0,1,.84-4.78,5.58,5.58,0,0,1,2.73-2.36,10.91,10.91,0,0,1,4.54-.86,12,12,0,0,1,5,.93,5.26,5.26,0,0,1,2.72,2.35,12.45,12.45,0,0,1,.66,4.81Z" transform="translate(0 0)"/><path d="M224.62,7.79V36.25h-6.54V17l-2.61,19.21h-4.63l-2.75-18.77V36.25h-6.53V7.79h9.67q.43,2.57.89,6.05l1.06,7.24,1.72-13.29Z" transform="translate(0 0)"/><path d="M242.37,7.79l4.27,28.46H239l-.4-5.12h-2.67l-.45,5.12h-7.74l3.82-28.46Zm-4,18.3q-.56-4.83-1.13-11.95-1.16,8.17-1.44,12Z" transform="translate(0 0)"/><path d="M249.73,7.79H255a40.64,40.64,0,0,1,7.16.41,4.89,4.89,0,0,1,3.06,2.06,9.36,9.36,0,0,1,1.18,5.3c0,2.22-.28,3.7-.84,4.47s-1.65,1.21-3.28,1.37a5.6,5.6,0,0,1,3,1.46,4.19,4.19,0,0,1,.95,1.67,25.42,25.42,0,0,1,.19,4.21v7.51h-6.95V26.79a6.56,6.56,0,0,0-.36-2.83c-.24-.36-.88-.54-1.91-.54V36.25h-7.48Zm7.48,4.87V19a3.43,3.43,0,0,0,1.77-.34c.33-.23.5-1,.5-2.23V14.86a2.4,2.4,0,0,0-.48-1.78A2.84,2.84,0,0,0,257.21,12.66Z" transform="translate(0 0)"/><path d="M289,7.79l-4.29,12.85,4.7,15.61h-7.73l-3-12.2v12.2h-7.48V7.79h7.48V18.85L282,7.79Z" transform="translate(0 0)"/><path d="M292.48,7.79H305v5.7h-5v5.39h4.67V24.3H300v6.25h5.49v5.7h-13Z" transform="translate(0 0)"/><path d="M324,7.79v5.7h-4.44V36.25h-7.48V13.49h-4.42V7.79Z" transform="translate(0 0)"/><path class="cls-2" d="M62.55,40.22l2.23,7,2.23-7h1.38v8.53H67.32V45.43l.1-3.33-2.24,6.65h-.82l-2.22-6.63.1,3.31v3.32H61.17V40.22Z" transform="translate(0 0)"/><path class="cls-2" d="M75,46.52H72.1l-.67,2.23h-1.1l2.75-8.53H74l2.75,8.53h-1.1Zm-2.6-.92H74.7l-1.16-3.88Z" transform="translate(0 0)"/><path class="cls-2" d="M83.06,41.14H79.7v7.61H78.63V40.22h4.43Z" transform="translate(0 0)"/><path class="cls-2" d="M87.93,46.52H85.05l-.67,2.23h-1.1L86,40.22H87l2.75,8.53H88.6Zm-2.6-.92h2.32l-1.16-3.88Z" transform="translate(0 0)"/><path class="cls-2" d="M95.11,42.51a1.5,1.5,0,0,0-.39-1.09,1.43,1.43,0,0,0-1.08-.4,1.31,1.31,0,0,0-1,.41,1.45,1.45,0,0,0-.39,1H91.2a2.25,2.25,0,0,1,.7-1.7,2.42,2.42,0,0,1,1.74-.66,2.59,2.59,0,0,1,1.88.65,2.32,2.32,0,0,1,.67,1.78,1.91,1.91,0,0,1-.31,1.07,2.14,2.14,0,0,1-.86.77,2,2,0,0,1,1.27,2,2.36,2.36,0,0,1-.73,1.83,2.74,2.74,0,0,1-1.92.67,3,3,0,0,1-1-.17,2.26,2.26,0,0,1-.84-.51,2.39,2.39,0,0,1-.71-1.81h1.07a1.61,1.61,0,0,0,.41,1.12,1.38,1.38,0,0,0,1.06.45,1.55,1.55,0,0,0,1.15-.43,1.5,1.5,0,0,0,.43-1.13,1.33,1.33,0,0,0-1.42-1.53h-.88v-.92h.8a1.36,1.36,0,0,0,1-.37A1.5,1.5,0,0,0,95.11,42.51Z" transform="translate(0 0)"/><path class="cls-2" d="M102.84,40.22h1.08v8.53h-1.08V42.18l-3.32,6.57H98.44V40.22h1.08v6.57Z" transform="translate(0 0)"/><path class="cls-2" d="M112.07,48.75H111V44.81h-3.43v3.94h-1.07V40.22h1.07v3.67H111V40.22h1.08Z" transform="translate(0 0)"/><path class="cls-2" d="M123.34,46a3.12,3.12,0,0,1-.77,2.1,2.61,2.61,0,0,1-2,.73,2.44,2.44,0,0,1-2-1,4.16,4.16,0,0,1-.76-2.64V43.7a4.06,4.06,0,0,1,.78-2.63,2.56,2.56,0,0,1,2.12-1,2.47,2.47,0,0,1,1.91.74,3.2,3.2,0,0,1,.73,2.12h-1.08a2.6,2.6,0,0,0-.44-1.49A1.37,1.37,0,0,0,120.7,41a1.55,1.55,0,0,0-1.35.68,3.6,3.6,0,0,0-.46,2v1.56a3.79,3.79,0,0,0,.43,2,1.42,1.42,0,0,0,1.28.69,1.52,1.52,0,0,0,1.2-.42,2.59,2.59,0,0,0,.46-1.49Z" transform="translate(0 0)"/><path class="cls-2" d="M129.55,44.81h-3v3h3.52v.92h-4.59V40.22H130v.92h-3.46v2.75h3Z" transform="translate(0 0)"/><path class="cls-2" d="M133.15,45.41v3.34h-1.07V40.22h2.72a2.46,2.46,0,0,1,1.86.71,2.62,2.62,0,0,1,.68,1.9,2.59,2.59,0,0,1-.64,1.89,2.5,2.5,0,0,1-1.83.69Zm0-.92h1.65a1.37,1.37,0,0,0,1.09-.43,1.74,1.74,0,0,0,.38-1.23,1.85,1.85,0,0,0-.39-1.23,1.33,1.33,0,0,0-1.08-.46h-1.65Z" transform="translate(0 0)"/><path class="cls-2" d="M144.37,41.14h-2.24v7.61h-1.07V41.14h-2.24v-.92h5.55Z" transform="translate(0 0)"/><path class="cls-2" d="M150.74,40.22h1.07v8.53h-1.07V42.18l-3.32,6.57h-1.08V40.22h1.08v6.57Z" transform="translate(0 0)"/><path class="cls-2" d="M158.07,41.07h.15a2.63,2.63,0,0,1,1.46.46,2.92,2.92,0,0,1,1,1.22,4.35,4.35,0,0,1,0,3.51,3,3,0,0,1-1,1.24,2.61,2.61,0,0,1-1.48.45h-.14V49.1h-1V48h-.14a2.67,2.67,0,0,1-1.48-.44,3,3,0,0,1-1-1.24,4.27,4.27,0,0,1,0-3.52,2.94,2.94,0,0,1,1-1.23,2.61,2.61,0,0,1,1.48-.45H157v-1.2h1ZM156.9,42a1.6,1.6,0,0,0-1.37.67,3.07,3.07,0,0,0-.5,1.88,3.13,3.13,0,0,0,.49,1.88,1.61,1.61,0,0,0,1.36.67H157V42Zm1.17,0v5.1h.14a1.61,1.61,0,0,0,1.37-.68,3.18,3.18,0,0,0,.49-1.88,3.14,3.14,0,0,0-.48-1.84,1.58,1.58,0,0,0-1.34-.7Z" transform="translate(0 0)"/><path class="cls-2" d="M167.61,40.22h1.07v8.53h-1.07V42.18l-3.32,6.57h-1.08V40.22h1.08v6.57Z" transform="translate(0 0)"/><path class="cls-2" d="M171.31,40.22h1.07v7.61h3.34V40.22h1.07v7.59h.77l-.1,3h-1V48.75h-5.19Z" transform="translate(0 0)"/><path class="cls-2" d="M184,40.22h1.07v8.53H184V42.18l-3.32,6.57h-1.08V40.22h1.08v6.57Z" transform="translate(0 0)"/><path class="cls-2" d="M188.75,45.41v3.34h-1.08V40.22h2.72a2.48,2.48,0,0,1,1.87.71,2.66,2.66,0,0,1,.68,1.9,2.6,2.6,0,0,1-.65,1.89,2.49,2.49,0,0,1-1.82.69Zm0-.92h1.64a1.39,1.39,0,0,0,1.1-.43,1.79,1.79,0,0,0,.38-1.23,1.85,1.85,0,0,0-.39-1.23,1.36,1.36,0,0,0-1.08-.46h-1.65Z" transform="translate(0 0)"/><path class="cls-2" d="M200.53,45.23a4.29,4.29,0,0,1-.74,2.69,2.83,2.83,0,0,1-4.2,0,4.06,4.06,0,0,1-.79-2.59V43.75a4.29,4.29,0,0,1,.75-2.68,2.81,2.81,0,0,1,4.21,0,4.18,4.18,0,0,1,.77,2.65Zm-1.07-1.49a3.7,3.7,0,0,0-.44-2,1.53,1.53,0,0,0-1.36-.66,1.52,1.52,0,0,0-1.34.67,3.6,3.6,0,0,0-.46,2v1.52a3.56,3.56,0,0,0,.46,2,1.71,1.71,0,0,0,2.69.05,3.53,3.53,0,0,0,.45-1.94Z" transform="translate(0 0)"/><path class="cls-2" d="M202.85,48.75V40.22h2.43a2.45,2.45,0,0,1,1.76.57,2.26,2.26,0,0,1,.59,1.7,1.9,1.9,0,0,1-.3,1.06,2.07,2.07,0,0,1-.81.71,1.58,1.58,0,0,1,.93.72,2.39,2.39,0,0,1,.34,1.31,2.48,2.48,0,0,1-.63,1.8,2.37,2.37,0,0,1-1.8.66Zm1.07-4.89h1.38a1.17,1.17,0,0,0,.9-.38,1.73,1.73,0,0,0,0-2,1.28,1.28,0,0,0-.95-.32h-1.36Zm0,.9v3.07h1.47a1.2,1.2,0,0,0,1-.4,1.63,1.63,0,0,0,.36-1.13c0-1-.43-1.54-1.3-1.54Z" transform="translate(0 0)"/><path class="cls-2" d="M214,46.52h-2.88l-.66,2.23h-1.1l2.75-8.53h.92l2.75,8.53h-1.1Zm-2.6-.92h2.33l-1.17-3.88Z" transform="translate(0 0)"/><path class="cls-2" d="M223.21,48.75h-1.07V44.81H218.7v3.94h-1.07V40.22h1.07v3.67h3.44V40.22h1.07Z" transform="translate(0 0)"/><path class="cls-2" d="M231.31,48.75h-1.07V44.81H226.8v3.94h-1.07V40.22h1.07v3.67h3.44V40.22h1.07Z" transform="translate(0 0)"/><path class="cls-2" d="M235,43.7h1.73a2.4,2.4,0,0,1,1.79.67,2.47,2.47,0,0,1,.65,1.83,2.57,2.57,0,0,1-.65,1.86,2.41,2.41,0,0,1-1.83.69h-2.76V40.22H235Zm0,.92v3.21h1.71a1.23,1.23,0,0,0,1-.45,1.8,1.8,0,0,0,.37-1.19A1.7,1.7,0,0,0,237.7,45a1.27,1.27,0,0,0-1-.42Zm6,4.13h-1.08V40.22H241Z" transform="translate(0 0)"/><path class="cls-2" d="M246.05,43.49l1.61-3.27h1.26l-2.22,4.23,2.26,4.3h-1.27l-1.64-3.33-1.64,3.33h-1.28l2.28-4.3-2.23-4.23h1.26Z" transform="translate(0 0)"/><path class="cls-2" d="M259.88,48.75H258.8V41.14h-3.34v7.61h-1.07V40.22h5.49Z" transform="translate(0 0)"/><path class="cls-2" d="M268,45.23a4.29,4.29,0,0,1-.74,2.69,2.83,2.83,0,0,1-4.2,0,4.06,4.06,0,0,1-.8-2.59V43.75a4.29,4.29,0,0,1,.76-2.68,2.51,2.51,0,0,1,2.11-1,2.55,2.55,0,0,1,2.1.93,4.18,4.18,0,0,1,.77,2.65Zm-1.07-1.49a3.7,3.7,0,0,0-.44-2,1.53,1.53,0,0,0-1.36-.66,1.5,1.5,0,0,0-1.34.67,3.52,3.52,0,0,0-.46,2v1.52a3.66,3.66,0,0,0,.45,2,1.55,1.55,0,0,0,1.36.68,1.52,1.52,0,0,0,1.34-.63,3.53,3.53,0,0,0,.45-1.94Z" transform="translate(0 0)"/><path class="cls-2" d="M275.85,48.75h-1.08V41.14h-3.34v7.61h-1.07V40.22h5.49Z" transform="translate(0 0)"/><path class="cls-2" d="M284,48.75h-1.08V41.14h-3.34v7.61h-1.07V40.22H284Z" transform="translate(0 0)"/><path class="cls-2" d="M290.61,44.81h-3v3h3.52v.92h-4.59V40.22h4.53v.92h-3.46v2.75h3Z" transform="translate(0 0)"/><path class="cls-2" d="M294.21,45.41v3.34h-1.07V40.22h2.72a2.48,2.48,0,0,1,1.87.71,2.66,2.66,0,0,1,.68,1.9,2.6,2.6,0,0,1-.65,1.89,2.49,2.49,0,0,1-1.82.69Zm0-.92h1.65a1.39,1.39,0,0,0,1.1-.43,2.13,2.13,0,0,0,0-2.46,1.32,1.32,0,0,0-1.07-.46h-1.66Z" transform="translate(0 0)"/><path class="cls-2" d="M305.8,46a3.18,3.18,0,0,1-.77,2.1,2.63,2.63,0,0,1-2,.73,2.47,2.47,0,0,1-2-1,4.22,4.22,0,0,1-.75-2.64V43.7a4.06,4.06,0,0,1,.78-2.63,2.54,2.54,0,0,1,2.11-1,2.48,2.48,0,0,1,1.92.74A3.25,3.25,0,0,1,305.8,43h-1.08a2.68,2.68,0,0,0-.44-1.49,1.38,1.38,0,0,0-1.13-.45,1.54,1.54,0,0,0-1.34.68,3.6,3.6,0,0,0-.47,2v1.56a3.79,3.79,0,0,0,.44,2,1.42,1.42,0,0,0,1.27.69,1.54,1.54,0,0,0,1.21-.42,2.59,2.59,0,0,0,.46-1.49Z" transform="translate(0 0)"/><path class="cls-2" d="M313.46,45.23a4.22,4.22,0,0,1-.74,2.69,2.55,2.55,0,0,1-2.12.95,2.58,2.58,0,0,1-2.08-.92,4.06,4.06,0,0,1-.79-2.59V43.75a4.29,4.29,0,0,1,.75-2.68,2.81,2.81,0,0,1,4.21,0,4.12,4.12,0,0,1,.77,2.65Zm-1.07-1.49a3.7,3.7,0,0,0-.44-2,1.53,1.53,0,0,0-1.36-.66,1.52,1.52,0,0,0-1.34.67,3.6,3.6,0,0,0-.46,2v1.52a3.65,3.65,0,0,0,.46,2,1.71,1.71,0,0,0,2.69.05,3.53,3.53,0,0,0,.45-1.94Z" transform="translate(0 0)"/><path class="cls-2" d="M315.78,48.75V40.22h2.43a2.44,2.44,0,0,1,1.76.57,2.26,2.26,0,0,1,.59,1.7,1.9,1.9,0,0,1-.3,1.06,2.07,2.07,0,0,1-.81.71,1.58,1.58,0,0,1,.93.72,2.39,2.39,0,0,1,.34,1.31,2.48,2.48,0,0,1-.63,1.8,2.36,2.36,0,0,1-1.79.66Zm1.07-4.89h1.38a1.17,1.17,0,0,0,.9-.38,1.73,1.73,0,0,0,0-2,1.27,1.27,0,0,0-1-.32h-1.36Zm0,.9v3.07h1.47a1.22,1.22,0,0,0,1-.4,1.68,1.68,0,0,0,.35-1.13c0-1-.43-1.54-1.3-1.54Z" transform="translate(0 0)"/></svg>