<svg xmlns="http://www.w3.org/2000/svg" viewBox="0 0 586.1 574.13"><defs><style>.cls-1{fill:#c90c0b;fill-rule:evenodd;}</style></defs><title>Ресурс 1</title><g id="Слой_2" data-name="Слой 2"><g id="Слой_1-2" data-name="Слой 1"><path class="cls-1" d="M585.81,67.82s-12.31,28.87-35,46.43c-27.94,21.65-69,30.6-90.32,1.28C421.87,62.41,457.38-1.83,527.3,14.39c0,0-58.89-57.88-132.94,58.52S264.44,125.7,260.79,114.25,238.26,39,354.29,26.48c0,0-90.43-65.72-199.09,36.25-29.64,27.82-54.44,37.58-70.83,40.71H61.7A12.72,12.72,0,0,0,49,116.16V155A12.71,12.71,0,0,0,61.7,167.68H75.06v24.17H44.52A44.53,44.53,0,0,0,0,236.38V529.6a44.53,44.53,0,0,0,44.52,44.53H178.73a44.49,44.49,0,0,0,9.45-1c23.8-3.58,85-19.53,93.6-89.31,10.76-86.92,37.52-80.14,37.52-80.14s-36-14.84-62.33,30.53c0,0-32.84-44.26,49.61-70,41.82-13,62.18-61.07,44.53-84,0,0-36.84,71-61.07,12.73s69.18-116.62,146.3-110.68S591.48,138.32,585.81,67.82ZM209.26,250.37c0,57.19-11.86,51.85-18.74,36.14-2.81-6.41-4.79-14.56-4.79-20.87,0-22.94-15.29-38.17-36.26-38.17-10.79,0-32.33-20.33,7.64-20.33C193.65,207.14,209.26,230.69,209.26,250.37Zm-77.6-127.85a12.73,12.73,0,0,1,12.73-12.72h15.9A12.73,12.73,0,0,1,173,122.52V148.6a12.72,12.72,0,0,1-12.72,12.72h-15.9a12.72,12.72,0,0,1-12.73-12.72ZM131,548.05c-59.71-.55-10.18-28-10.18-28,51.66-39,68.77-125.26,70-159,.82-23.11,12-21.81,17.17-15.26,2.39,3,1.27,11.45,1.27,11.45s.64,100.75.64,138.66C209.9,547.35,177.06,548.47,131,548.05Zm269.69-201s7.71,21.33,2.54,33.71C391.5,409,370.55,393.6,332,424c-48.55,38.34-19.08,73.79-19.08,73.79.85-25.66,25-38.59,39.44-38.17,25.23-.05,64.16-5.21,78.23-45.16C443.67,377.41,400.72,347.05,400.72,347.05Z"/></g></g></svg>