<?xml version="1.0" encoding="utf-8"?>
<!-- Generator: Adobe Illustrator 22.1.0, SVG Export Plug-In . SVG Version: 6.00 Build 0)  -->
<svg version="1.1" id="Capa_1" xmlns="http://www.w3.org/2000/svg" xmlns:xlink="http://www.w3.org/1999/xlink" x="0px" y="0px"
	 viewBox="0 0 512 512" style="enable-background:new 0 0 512 512;" xml:space="preserve">
<style type="text/css">
	.st0{fill:#D80000;}
</style>
<g>
	<circle class="st0" cx="419.5" cy="242" r="9.3"/>
	<circle class="st0" cx="84" cy="242" r="9.3"/>
	<circle class="st0" cx="112" cy="270" r="9.3"/>
	<circle class="st0" cx="167.9" cy="270" r="9.3"/>
	<circle class="st0" cx="140" cy="297.9" r="9.3"/>
	<circle class="st0" cx="195.9" cy="297.9" r="9.3"/>
	<circle class="st0" cx="223.8" cy="325.9" r="9.3"/>
	<circle class="st0" cx="279.7" cy="325.9" r="9.3"/>
	<circle class="st0" cx="307.7" cy="297.9" r="9.3"/>
	<circle class="st0" cx="251.8" cy="353.8" r="9.3"/>
	<circle class="st0" cx="335.6" cy="270" r="9.3"/>
	<circle class="st0" cx="391.5" cy="270" r="9.3"/>
	<circle class="st0" cx="363.6" cy="297.9" r="9.3"/>
	<path class="st0" d="M424.5,305.6l87.5-50l-90-51.1l90-51.4L256,7.7L0,153.1l90,51.4L0,255.6L90,307L0,358l256,146.3L512,358
		L422,307l0.7-0.4C423.4,306.3,423.9,305.9,424.5,305.6z M256,29.1l218.4,124l-71.2,40.7l0,0L256,277.9L37.7,153.1L256,29.1z
		 M103.7,218.1c1.5,3.1,4.6,5.3,8.3,5.3c2.5,0,4.8-1,6.4-2.6l21.1,12c-4.9,0.2-8.9,4.2-8.9,9.2c0,5.1,4.2,9.3,9.3,9.3
		c5.1,0,9.3-4.2,9.3-9.3c0-1.6-0.5-3-1.2-4.4l96.2,55c-1.1,1.5-1.8,3.3-1.8,5.3c0,5.1,4.2,9.3,9.3,9.3s9.3-4.2,9.3-9.3
		c0-0.5-0.2-0.9-0.3-1.3l93.7-53.5c0.5,4.6,4.3,8.2,9.1,8.2c5.1,0,9.3-4.2,9.3-9.3c0-3-1.5-5.6-3.8-7.3l20.5-11.7
		c0.6,0.1,1.2,0.4,1.9,0.4c4.1,0,7.5-2.7,8.7-6.5l3-1.7l71.1,40.4l-18.5,10.6c-1.5-3.2-4.7-5.5-8.5-5.5c-5.1,0-9.3,4.2-9.3,9.3
		c0,2,0.8,3.8,1.9,5.3l-36.8,21l0,0l-59.5,34c0.7-1.3,1.2-2.8,1.2-4.4c0-5.1-4.2-9.3-9.3-9.3s-9.3,4.2-9.3,9.3c0,5,4,9,8.9,9.2
		l-21.1,12c-1.7-1.6-3.9-2.6-6.5-2.6c-5.1,0-9.3,4.2-9.3,9.3c0,0.7,0.3,1.4,0.4,2.1L256,380.4L204.6,351c-1.2-3.7-4.6-6.5-8.7-6.5
		c-0.7,0-1.3,0.3-1.9,0.4l-20.5-11.7c2.2-1.7,3.8-4.3,3.8-7.3c0-5.1-4.2-9.3-9.3-9.3c-4.8,0-8.6,3.6-9.1,8.3l-93.7-53.5
		c0.1-0.5,0.3-0.9,0.3-1.3c0-5.1-4.2-9.3-9.3-9.3c-2.2,0-4.2,0.9-5.8,2.2l-12.7-7.2L103.7,218.1z M474.3,358.1L256,482.8L37.7,358.1
		l71.1-40.4L256,401.8l147.2-84.1L474.3,358.1z"/>
</g>
</svg>
