<?xml version="1.0" encoding="utf-8"?>
<!-- Generator: Adobe Illustrator 22.1.0, SVG Export Plug-In . SVG Version: 6.00 Build 0)  -->
<svg version="1.1" id="Слой_1" xmlns="http://www.w3.org/2000/svg" xmlns:xlink="http://www.w3.org/1999/xlink" x="0px" y="0px"
	 viewBox="0 0 512 512" style="enable-background:new 0 0 512 512;" xml:space="preserve">
<style type="text/css">
	.st0{fill:none;}
	.st1{fill:#D80000;}
</style>
<g>
	<title>background</title>
	<rect id="canvas_background" x="-1" y="-1" class="st0" width="582" height="402"/>
</g>
<g>
	<title>Layer 1</title>
	<g id="svg_5">
		<path id="svg_1" class="st1" d="M471.2,14.1H40.8C18.3,14.1,0,32.3,0,54.8V114c0,4.6,3.7,8.3,8.3,8.3c4.6,0,8.3-3.7,8.3-8.3V54.8
			c0-13.3,10.8-24.1,24.1-24.1h430.5c13.3,0,24.1,10.8,24.1,24.1v284.4h-32.5v-103c0-16.2-13.2-29.3-29.3-29.3H312.2
			c-16.2,0-29.3,13.2-29.3,29.3v159H40.8c-13.3,0-24.1-10.8-24.1-24.1v-15.3h246.8c4.6,0,8.3-3.7,8.3-8.3c0-4.6-3.7-8.3-8.3-8.3
			H16.7V141.8c0-4.6-3.7-8.3-8.3-8.3S0,137.2,0,141.8v229.3c0,22.5,18.3,40.7,40.7,40.7h142.8l-20.5,47.9h-40
			c-4.6,0-8.3,3.7-8.3,8.3c0,4.6,3.7,8.3,8.3,8.3h139.5c4.6,0,8.3-3.7,8.3-8.3c0-4.6-3.7-8.3-8.3-8.3h-81.3l14.2-33.3h87.5v42.1
			c0,16.2,13.2,29.3,29.3,29.3h121.3c16.2,0,29.3-13.2,29.3-29.3V355.9h32.5v15.3c0,9.7-5.8,18.4-14.7,22.2
			c-4.2,1.8-6.2,6.7-4.4,10.9c1.3,3.2,4.4,5.1,7.7,5.1c1.1,0,2.2-0.2,3.2-0.7c15.1-6.4,24.9-21.1,24.9-37.5V54.8
			C512,32.3,493.7,14.1,471.2,14.1L471.2,14.1L471.2,14.1z M299.6,236.2c0-7,5.7-12.7,12.7-12.7h121.3c7,0,12.7,5.7,12.7,12.7v194
			H299.6L299.6,236.2L299.6,236.2L299.6,236.2z M446.2,468.6c0,7-5.7,12.7-12.7,12.7H312.2c-7,0-12.7-5.7-12.7-12.7v-21.8h146.6
			L446.2,468.6L446.2,468.6z"/>
		<path id="svg_2" class="st1" d="M262.9,369c-4-6-13.7-4.1-15.1,3c-0.7,3.4,0.9,7,4,8.8c3,1.8,7,1.4,9.6-0.9
			C264.6,377.2,265.2,372.4,262.9,369L262.9,369z"/>
		<path id="svg_3" class="st1" d="M380.6,460.9c-1.3-3.1-4.5-5.2-7.9-5.1c-3.4,0.1-6.5,2.3-7.6,5.5c-1.2,3.3-0.1,7,2.6,9.2
			c2.8,2.3,6.9,2.5,9.9,0.5C380.8,468.8,382,464.5,380.6,460.9z"/>
		<path id="svg_4" class="st1" d="M395.7,233.5h-45.5c-4.6,0-8.3,3.7-8.3,8.3c0,4.6,3.7,8.3,8.3,8.3h45.5c4.6,0,8.3-3.7,8.3-8.3
			C404,237.3,400.3,233.5,395.7,233.5z"/>
	</g>
</g>
</svg>
