<svg width="511.998" height="511.998" xmlns="http://www.w3.org/2000/svg">

 <g>
  <title>background</title>
  <rect fill="none" id="canvas_background" height="402" width="582" y="-1" x="-1"/>
 </g>
 <g>
  <title>Layer 1</title>
  <g id="svg_5">
   <path id="svg_1" fill="#e6d72b" d="m471.24,14.054l-430.49,0c-22.468,0 -40.749,18.278 -40.749,40.749l0,59.224c0,4.602 3.731,8.332 8.332,8.332c4.602,0 8.332,-3.731 8.332,-8.332l0,-59.224c0,-13.281 10.805,-24.085 24.085,-24.085l430.49,0c13.287,0 24.096,10.805 24.096,24.085l0,284.41l-32.462,0l0,-103.01c0,-16.17 -13.155,-29.324 -29.324,-29.324l-121.32,0c-16.17,0 -29.324,13.155 -29.324,29.324l0,159.04l-242.15,0c-13.28,0 -24.085,-10.805 -24.085,-24.085l0,-15.275l246.8,0c4.602,0 8.332,-3.731 8.332,-8.332c0,-4.602 -3.731,-8.332 -8.332,-8.332l-246.8,0l0,-197.42c0,-4.602 -3.731,-8.332 -8.332,-8.332s-8.332,3.731 -8.332,8.332l0,229.35c0,22.47 18.281,40.749 40.749,40.749l142.79,0l-20.495,47.948l-40.027,0c-4.602,0 -8.332,3.731 -8.332,8.332c0,4.602 3.731,8.332 8.332,8.332l139.49,0c4.602,0 8.332,-3.731 8.332,-8.332c0,-4.602 -3.731,-8.332 -8.332,-8.332l-81.344,0l14.241,-33.317l87.497,0l0,42.086c0,16.17 13.155,29.324 29.324,29.324l121.32,0c16.17,0 29.324,-13.155 29.324,-29.324l0,-112.74l32.462,0l0,15.275c0,9.701 -5.778,18.413 -14.72,22.196c-4.238,1.793 -6.221,6.681 -4.428,10.919c1.344,3.18 4.43,5.089 7.678,5.089c1.082,0 2.183,-0.212 3.242,-0.66c15.121,-6.396 24.892,-21.132 24.892,-37.543l0,-316.35c0.002,-22.471 -18.283,-40.749 -40.758,-40.749l-0.004,0.002zm-171.68,222.15c0.001,-6.981 5.68,-12.66 12.661,-12.66l121.32,0c6.981,0 12.66,5.679 12.66,12.66l0,193.98l-146.64,0l0,-193.98l-0.001,0zm146.65,232.42c0,6.98 -5.679,12.66 -12.661,12.66l-121.32,0c-6.981,0 -12.66,-5.679 -12.66,-12.66l0,-21.779l146.64,0l0,21.779l0.001,0z"/>
   <path id="svg_2" fill="#e6d72b" d="m262.92,368.96c-3.987,-6.049 -13.707,-4.123 -15.098,3c-0.672,3.44 0.933,7.043 3.962,8.811c3.025,1.765 6.959,1.424 9.621,-0.855c3.18,-2.722 3.811,-7.47 1.515,-10.956z"/>
   <path id="svg_3" fill="#e6d72b" d="m380.58,460.87c-1.324,-3.138 -4.479,-5.226 -7.901,-5.138c-3.412,0.087 -6.483,2.309 -7.633,5.519c-1.173,3.277 -0.134,7.034 2.553,9.246c2.799,2.304 6.888,2.494 9.904,0.494c3.292,-2.184 4.536,-6.478 3.077,-10.121z"/>
   <path id="svg_4" fill="#e6d72b" d="m395.66,233.54l-45.549,0c-4.602,0 -8.332,3.731 -8.332,8.332c0,4.602 3.731,8.332 8.332,8.332l45.549,0c4.602,0 8.332,-3.731 8.332,-8.332c0,-4.602 -3.73,-8.332 -8.332,-8.332z"/>
  </g>
 </g>
</svg>