<?xml version="1.0" encoding="utf-8"?>
<!-- Generator: Adobe Illustrator 22.1.0, SVG Export Plug-In . SVG Version: 6.00 Build 0)  -->
<svg version="1.1" id="Слой_1" xmlns="http://www.w3.org/2000/svg" xmlns:xlink="http://www.w3.org/1999/xlink" x="0px" y="0px"
	 viewBox="0 0 441.1 441.1" style="enable-background:new 0 0 441.1 441.1;" xml:space="preserve">
<style type="text/css">
	.st0{fill:none;}
	.st1{fill:#D80000;}
</style>
<g>
	<title>background</title>
	<rect id="canvas_background" x="-1" y="-1" class="st0" width="582" height="402"/>
</g>
<g>
	<title>Layer 1</title>
	<g id="svg_1">
		<path id="svg_2" class="st1" d="M259.2,70.7V47.6h4c3.3,0,6-2.7,6-6V28.1c0-15.5-12.6-28.1-28.1-28.1h-41
			c-15.5,0-28.1,12.6-28.1,28.1v13.5c0,3.3,2.7,6,6,6h4v23.2c-27.5,5.8-52.8,17.6-74.4,34L93.8,91c-4.8-4.8-12.7-4.8-17.5,0l-17,17
			c-2.3,2.3-3.6,5.4-3.6,8.7s1.3,6.4,3.6,8.7L72.9,139c-24.7,31.7-39.5,71.6-39.5,114.9c0,103.2,84,187.2,187.2,187.2
			s187.2-84,187.2-187.2C407.8,163.9,343.9,88.6,259.2,70.7L259.2,70.7L259.2,70.7z M183.9,28.1c0-8.9,7.2-16.1,16.1-16.1h41
			c8.9,0,16.1,7.2,16.1,16.1v7.5h-73.2C183.9,35.6,183.9,28.1,183.9,28.1z M194,48h53.2v20.6c-8.7-1.2-17.6-1.9-26.6-1.9
			c-9,0-17.9,0.7-26.6,1.9C194,68.6,194,48,194,48z M67.8,117c0,0-0.1-0.1-0.1-0.3c0-0.2,0.1-0.2,0.1-0.3l17-17
			c0.1-0.1,0.4-0.1,0.5,0l12.9,12.9c-6.3,5.4-12.1,11.2-17.6,17.4L67.8,117z M220.6,429.1c-96.6,0-175.2-78.6-175.2-175.2
			S124,78.7,220.6,78.7c96.6,0,175.2,78.6,175.2,175.2S317.2,429.1,220.6,429.1L220.6,429.1z"/>
		<path id="svg_3" class="st1" d="M220.6,107.9c-80.5,0-146,65.5-146,146s65.5,146,146,146c80.5,0,146-65.5,146-146
			S301.1,107.9,220.6,107.9L220.6,107.9z M220.6,387.9c-73.9,0-134-60.1-134-134s60.1-134,134-134s134,60.1,134,134
			S294.4,387.9,220.6,387.9L220.6,387.9z"/>
		<path id="svg_4" class="st1" d="M226.4,176.1c-0.6-2.8-3-4.8-5.9-4.8s-5.3,2-5.9,4.8c0,0-15.8,75.1-15.8,77.9
			c0,12,9.7,21.7,21.7,21.7s21.7-9.7,21.7-21.7C242.3,251.1,226.4,176.1,226.4,176.1L226.4,176.1z M220.6,207.2l5.3,25.7
			c-1.7-0.4-3.4-0.6-5.3-0.6s-3.6,0.2-5.3,0.6L220.6,207.2L220.6,207.2z M220.6,263.6c-5.3,0-9.7-4.3-9.7-9.7s4.3-9.7,9.7-9.7
			s9.7,4.3,9.7,9.7C230.3,259.3,225.9,263.6,220.6,263.6z"/>
		<path id="svg_5" class="st1" d="M220.6,346.9c-3.3,0-6,2.7-6,6v23.2c0,3.3,2.7,6,6,6c3.3,0,6-2.7,6-6v-23.2
			C226.6,349.5,223.9,346.9,220.6,346.9L220.6,346.9z"/>
		<path id="svg_6" class="st1" d="M220.6,161c3.3,0,6-2.7,6-6v-23.2c0-3.3-2.7-6-6-6c-3.3,0-6,2.7-6,6V155
			C214.6,158.3,217.3,161,220.6,161z"/>
		<path id="svg_7" class="st1" d="M146.4,319.6L130,336.1c-2.3,2.3-2.3,6.1,0,8.5c1.2,1.2,2.7,1.8,4.2,1.8s3.1-0.6,4.2-1.8
			l16.4-16.4c2.3-2.3,2.3-6.1,0-8.5C152.5,317.3,148.7,317.3,146.4,319.6z"/>
		<path id="svg_8" class="st1" d="M290.5,190c1.6,0,3.1-0.6,4.2-1.8l16.4-16.4c2.3-2.3,2.3-6.1,0-8.5c-2.3-2.3-6.1-2.3-8.5,0
			l-16.3,16.3c-1.2,1.1-1.9,2.7-1.9,4.4C284.5,187.3,287.2,190,290.5,190z"/>
		<path id="svg_9" class="st1" d="M121.6,247.9H98.4c-3.3,0-6,2.7-6,6c0,3.3,2.7,6,6,6h23.2c3.3,0,6-2.7,6-6S125,247.9,121.6,247.9z
			"/>
		<path id="svg_10" class="st1" d="M342.7,247.9h-23.2c-3.3,0-6,2.7-6,6s2.7,6,6,6h23.2c3.3,0,6-2.7,6-6S346,247.9,342.7,247.9
			L342.7,247.9z"/>
		<path id="svg_11" class="st1" d="M146.4,188.2c1.1,1.1,2.7,1.8,4.2,1.8h0c3.3,0,6-2.7,6-6c0-1.7-0.7-3.2-1.9-4.3l-16.3-16.3
			c-2.3-2.3-6.1-2.3-8.5,0c-2.3,2.3-2.3,6.1,0,8.5L146.4,188.2z"/>
		<path id="svg_12" class="st1" d="M294.8,319.6c-2.3-2.3-6.1-2.3-8.5,0c-2.3,2.3-2.3,6.1,0,8.5l16.4,16.4c1.2,1.2,2.7,1.8,4.2,1.8
			c1.5,0,3.1-0.6,4.2-1.8c2.3-2.3,2.3-6.1,0-8.5L294.8,319.6L294.8,319.6z"/>
	</g>
</g>
</svg>
