<svg width="441.133" height="441.133" xmlns="http://www.w3.org/2000/svg">

 <g>
  <title>background</title>
  <rect fill="none" id="canvas_background" height="402" width="582" y="-1" x="-1"/>
 </g>
 <g>
  <title>Layer 1</title>
  <g id="svg_1" fill="#cb3134">
   <path fill="#e6d72b" id="svg_2" d="m259.16,70.727l0,-23.153l4.027,0c3.313,0 6,-2.687 6,-6l0,-13.455c0.001,-15.505 -12.614,-28.119 -28.118,-28.119l-41.007,0c-15.505,0 -28.119,12.614 -28.119,28.119l0,13.456c0,3.313 2.687,6 6,6l4.03,0l0,23.153c-27.492,5.785 -52.779,17.62 -74.404,34.043l-13.76,-13.761c-4.824,-4.822 -12.673,-4.822 -17.497,0l-16.997,16.997c-2.337,2.337 -3.624,5.444 -3.624,8.749s1.287,6.412 3.624,8.749l13.54,13.54c-24.738,31.737 -39.497,71.616 -39.497,114.88c0,103.23 83.981,187.21 187.21,187.21s187.21,-83.981 187.21,-187.21c0,-89.999 -63.841,-165.36 -148.61,-183.2l-0.008,0.002zm-75.217,-42.608c0,-8.888 7.231,-16.119 16.119,-16.119l41.007,0c8.888,0 16.119,7.231 16.119,16.119l0,7.456l-73.245,0l0,-7.456zm10.03,19.892l53.188,0l0,20.604c-8.69,-1.241 -17.567,-1.898 -26.595,-1.898c-9.027,0 -17.903,0.656 -26.593,1.897l0,-20.603zm-126.17,69.009c-0.03,-0.03 -0.109,-0.109 -0.109,-0.264c0,-0.154 0.08,-0.233 0.109,-0.263l16.997,-16.997c0.146,-0.146 0.383,-0.146 0.527,0l12.867,12.867c-6.253,5.412 -12.135,11.24 -17.625,17.423l-12.766,-12.766zm152.77,312.11c-96.61,0 -175.21,-78.598 -175.21,-175.21s78.598,-175.21 175.21,-175.21c96.609,0 175.21,78.598 175.21,175.21s-78.598,175.21 -175.21,175.21z"/>
   <path fill="#e6d72b" id="svg_3" d="m220.57,107.94c-80.497,0 -145.98,65.489 -145.98,145.98s65.489,145.98 145.98,145.98c80.497,0 145.98,-65.489 145.98,-145.98s-65.488,-145.98 -145.98,-145.98zm0,279.97c-73.88,0 -133.98,-60.105 -133.98,-133.98s60.105,-133.99 133.98,-133.99s133.98,60.105 133.98,133.98s-60.105,133.99 -133.98,133.99z"/>
   <path fill="#e6d72b" id="svg_4" d="m226.44,176.06c-0.571,-2.792 -3.028,-4.797 -5.878,-4.797s-5.307,2.005 -5.878,4.797c0,0 -15.812,75.082 -15.812,77.862c0,11.959 9.73,21.689 21.689,21.689s21.688,-9.729 21.688,-21.689c0.001,-2.78 -15.809,-77.862 -15.809,-77.862zm-5.878,31.128l5.258,25.693c-1.685,-0.421 -3.445,-0.648 -5.258,-0.648s-3.574,0.227 -5.259,0.648l5.259,-25.693zm0,56.423c-5.343,0 -9.689,-4.347 -9.689,-9.689s4.347,-9.689 9.689,-9.689s9.688,4.347 9.688,9.689s-4.347,9.689 -9.688,9.689z"/>
   <path fill="#e6d72b" id="svg_5" d="m220.57,346.85c-3.313,0 -6,2.687 -6,6l0,23.235c0,3.313 2.687,6 6,6c3.314,0 6,-2.687 6,-6l0,-23.235c0,-3.313 -2.686,-6 -6,-6z"/>
   <path fill="#e6d72b" id="svg_6" d="m220.57,161c3.314,0 6,-2.687 6,-6l0,-23.235c0,-3.313 -2.686,-6 -6,-6c-3.313,0 -6,2.687 -6,6l0,23.235c0,3.313 2.687,6 6,6z"/>
   <path fill="#e6d72b" id="svg_7" d="m146.38,319.63l-16.43,16.43c-2.343,2.343 -2.343,6.142 0,8.485c1.172,1.171 2.707,1.757 4.243,1.757s3.071,-0.586 4.243,-1.757l16.43,-16.43c2.343,-2.343 2.343,-6.142 0,-8.485c-2.345,-2.343 -6.144,-2.343 -8.486,0z"/>
   <path fill="#e6d72b" id="svg_8" d="m290.52,189.98c1.592,0 3.118,-0.633 4.244,-1.759l16.421,-16.43c2.342,-2.344 2.341,-6.143 -0.003,-8.485c-2.343,-2.342 -6.143,-2.342 -8.485,0.002l-16.254,16.264c-1.186,1.096 -1.928,2.665 -1.928,4.408c0,3.313 2.691,6 6.005,6z"/>
   <path fill="#e6d72b" id="svg_9" d="m121.64,247.93l-23.235,0c-3.313,0 -6,2.687 -6,6s2.687,6 6,6l23.235,0c3.313,0 6,-2.687 6,-6s-2.687,-6 -6,-6z"/>
   <path fill="#e6d72b" id="svg_10" d="m342.72,247.92l-23.227,0c-3.313,0 -6,2.687 -6,6s2.687,6 6,6l23.227,0c3.313,0 6,-2.687 6,-6s-2.687,-6 -6,-6z"/>
   <path fill="#e6d72b" id="svg_11" d="m146.37,188.22c1.125,1.126 2.652,1.759 4.244,1.759l0.009,0c3.313,0 5.996,-2.687 5.996,-6c0,-1.705 -0.711,-3.243 -1.854,-4.335l-16.328,-16.336c-2.341,-2.344 -6.142,-2.345 -8.485,-0.002c-2.344,2.342 -2.345,6.141 -0.002,8.485l16.42,16.429z"/>
   <path fill="#e6d72b" id="svg_12" d="m294.76,319.63c-2.343,-2.343 -6.143,-2.344 -8.485,0c-2.344,2.343 -2.344,6.142 -0.001,8.485l16.43,16.43c1.172,1.172 2.707,1.757 4.243,1.757c1.535,0 3.071,-0.586 4.242,-1.757c2.344,-2.343 2.344,-6.142 0.001,-8.485l-16.43,-16.43z"/>
  </g>
 </g>
</svg>