<svg width="512" height="512" xmlns="http://www.w3.org/2000/svg">

 <g>
  <title>background</title>
  <rect fill="none" id="canvas_background" height="402" width="582" y="-1" x="-1"/>
 </g>
 <g>
  <title>Layer 1</title>
  <g id="svg_7">
   <path id="svg_1" fill="#e6d72b" d="m299.72,203.38l-5.376,-0.674c-13.807,-1.732 -25.259,-10.428 -29.884,-22.707c-0.802,-2.116 -1.673,-4.224 -2.594,-6.315c-5.53,-12.424 -3.456,-27.221 5.41,-38.613l2.714,-3.49c2.637,-3.405 2.33,-8.235 -0.708,-11.273l-14.148,-14.148c-3.046,-3.038 -7.885,-3.337 -11.281,-0.7l-3.482,2.705c-11.392,8.866 -26.189,10.94 -38.613,5.41c-2.082,-0.93 -4.198,-1.792 -6.323,-2.594c-12.271,-4.617 -20.975,-16.068 -22.699,-29.884l-0.674,-5.376c-0.529,-4.275 -4.164,-7.475 -8.465,-7.475l-20.011,0c-4.301,0 -7.936,3.209 -8.465,7.475l-0.674,5.376c-1.732,13.807 -10.428,25.259 -22.699,29.884c-2.133,0.802 -4.241,1.664 -6.323,2.594c-12.425,5.504 -27.23,3.447 -38.613,-5.41l-3.482,-2.714c-3.396,-2.654 -8.235,-2.347 -11.273,0.7l-14.148,14.148c-3.046,3.046 -3.354,7.876 -0.708,11.273l2.722,3.49c8.866,11.401 10.931,26.189 5.41,38.622c-0.93,2.082 -1.792,4.19 -2.594,6.315c-4.625,12.271 -16.077,20.966 -29.884,22.699l-5.376,0.674c-4.266,0.529 -7.475,4.164 -7.475,8.465l0,20.011c0,4.301 3.209,7.936 7.475,8.465l5.367,0.674c13.815,1.732 25.267,10.428 29.892,22.707c0.802,2.116 1.664,4.224 2.594,6.315c5.53,12.425 3.456,27.221 -5.41,38.613l-2.705,3.49c-2.637,3.405 -2.338,8.235 0.708,11.273l14.148,14.148c3.046,3.055 7.876,3.354 11.273,0.708l3.482,-2.705c11.392,-8.866 26.189,-10.94 38.613,-5.41c2.091,0.93 4.198,1.792 6.323,2.594c12.271,4.617 20.966,16.068 22.699,29.884l0.674,5.376c0.529,4.275 4.164,7.475 8.465,7.475l20.011,0c4.309,0 7.936,-3.2 8.465,-7.467l0.674,-5.376c1.724,-13.807 10.428,-25.259 22.699,-29.884c2.133,-0.802 4.241,-1.664 6.323,-2.594c12.425,-5.521 27.23,-3.465 38.622,5.41l3.465,2.705c3.396,2.637 8.226,2.33 11.273,-0.708l14.148,-14.148c3.046,-3.046 3.354,-7.876 0.708,-11.273l-2.714,-3.49c-8.866,-11.401 -10.94,-26.189 -5.41,-38.622c0.93,-2.082 1.792,-4.19 2.594,-6.315c4.625,-12.271 16.077,-20.966 29.884,-22.699l5.376,-0.674c4.275,-0.529 7.475,-4.164 7.475,-8.465l0,-20.011c0,-4.299 -3.208,-7.934 -7.475,-8.464zm-9.583,20.984c-19.174,3.123 -35.021,15.735 -41.634,33.314c-0.683,1.826 -1.425,3.627 -2.219,5.41c-7.68,17.271 -5.47,37.504 5.675,53.513l-3.61,3.61c-16.009,-11.145 -36.241,-13.355 -53.521,-5.675c-1.775,0.794 -3.576,1.527 -5.393,2.21c-17.587,6.622 -30.191,22.46 -33.314,41.643l-5.026,0c-3.115,-19.183 -15.727,-35.021 -33.306,-41.643c-1.818,-0.683 -3.618,-1.417 -5.402,-2.21c-17.28,-7.689 -37.504,-5.47 -53.513,5.675l-3.618,-3.61c11.145,-16.009 13.363,-36.241 5.683,-53.504c-0.794,-1.792 -1.527,-3.593 -2.219,-5.41c-6.622,-17.579 -22.46,-30.191 -41.643,-33.314l0,-5.018c19.183,-3.123 35.021,-15.735 41.643,-33.314c0.683,-1.826 1.425,-3.627 2.219,-5.41c7.671,-17.271 5.461,-37.504 -5.683,-53.513l3.61,-3.61c16.009,11.145 36.241,13.355 53.513,5.675c1.783,-0.794 3.575,-1.527 5.393,-2.21c17.587,-6.622 30.199,-22.46 33.314,-41.643l5.026,0c3.115,19.174 15.727,35.021 33.314,41.643c1.818,0.683 3.618,1.416 5.402,2.21c17.271,7.68 37.504,5.461 53.513,-5.675l3.618,3.61c-11.153,16.009 -13.363,36.241 -5.683,53.504c0.794,1.792 1.536,3.593 2.219,5.41c6.622,17.579 22.46,30.191 41.643,33.314l0,5.018l-0.001,0z"/>
   <path id="svg_2" fill="#e6d72b" d="m504.53,367.29l-4.429,-0.555c-10.812,-1.357 -19.78,-8.149 -23.39,-17.724c-0.666,-1.784 -1.391,-3.541 -2.167,-5.299c-4.318,-9.719 -2.688,-21.316 4.267,-30.259l2.236,-2.867c2.645,-3.396 2.338,-8.235 -0.7,-11.273l-11.657,-11.648c-3.038,-3.046 -7.868,-3.345 -11.264,-0.708l-2.876,2.236c-8.943,6.955 -20.54,8.585 -30.268,4.267c-1.749,-0.777 -3.516,-1.493 -5.291,-2.167c-9.583,-3.61 -16.375,-12.57 -17.724,-23.381l-0.555,-4.429c-0.529,-4.275 -4.164,-7.475 -8.465,-7.475l-16.478,0c-4.309,0 -7.945,3.2 -8.474,7.475l-0.546,4.429c-1.357,10.812 -8.149,19.78 -17.732,23.39c-1.775,0.674 -3.533,1.391 -5.282,2.167c-9.737,4.309 -21.325,2.688 -30.276,-4.275l-2.867,-2.227c-3.396,-2.637 -8.226,-2.321 -11.264,0.708l-11.648,11.648c-3.046,3.038 -3.354,7.876 -0.708,11.273l2.236,2.867c6.963,8.943 8.593,20.54 4.267,30.268c-0.768,1.749 -1.493,3.507 -2.159,5.282c-3.618,9.583 -12.578,16.375 -23.398,17.732l-4.429,0.555c-4.275,0.529 -7.475,4.164 -7.475,8.465l0,16.478c0,4.301 3.209,7.936 7.475,8.465l4.429,0.555c10.82,1.357 19.78,8.149 23.39,17.724c0.666,1.784 1.391,3.541 2.167,5.299c4.326,9.719 2.688,21.316 -4.267,30.259l-2.236,2.867c-2.637,3.396 -2.338,8.235 0.708,11.273l11.648,11.648c3.046,3.038 7.868,3.345 11.264,0.708l2.876,-2.236c8.943,-6.955 20.54,-8.585 30.268,-4.267c1.741,0.777 3.507,1.493 5.282,2.167c9.583,3.61 16.375,12.57 17.732,23.381l0.546,4.429c0.538,4.275 4.173,7.475 8.474,7.475l16.478,0c4.301,0 7.927,-3.2 8.474,-7.467l0.546,-4.429c1.357,-10.82 8.149,-19.789 17.741,-23.398c1.775,-0.674 3.541,-1.391 5.282,-2.167c9.719,-4.326 21.316,-2.697 30.268,4.275l2.867,2.227c3.396,2.637 8.226,2.33 11.264,-0.708l11.657,-11.648c3.038,-3.038 3.345,-7.876 0.7,-11.273l-2.236,-2.867c-6.955,-8.943 -8.593,-20.54 -4.267,-30.268c0.777,-1.749 1.502,-3.507 2.167,-5.282c3.61,-9.583 12.57,-16.375 23.39,-17.732l4.429,-0.555c4.267,-0.529 7.467,-4.164 7.467,-8.465l0,-16.478c0,-4.301 -3.2,-7.936 -7.467,-8.465zm-9.6,17.502c-15.753,2.995 -28.698,13.577 -34.202,28.177c-0.546,1.468 -1.143,2.927 -1.783,4.361c-6.374,14.336 -4.753,31.044 4.104,44.493l-1.22,1.22c-13.44,-8.858 -30.157,-10.479 -44.493,-4.104c-1.442,0.64 -2.901,1.237 -4.361,1.783c-14.601,5.504 -25.173,18.441 -28.169,34.202l-1.604,0c-2.995,-15.761 -13.568,-28.698 -28.177,-34.193c-1.476,-0.555 -2.927,-1.152 -4.369,-1.792c-14.336,-6.374 -31.053,-4.753 -44.493,4.104l-1.22,-1.22c8.858,-13.44 10.479,-30.157 4.104,-44.484c-0.64,-1.442 -1.237,-2.901 -1.792,-4.378c-5.504,-14.601 -18.449,-25.173 -34.202,-28.169l0,-1.604c15.761,-2.995 28.698,-13.577 34.202,-28.177c0.555,-1.468 1.152,-2.927 1.792,-4.361c6.374,-14.336 4.753,-31.044 -4.104,-44.493l1.22,-1.22c13.44,8.858 30.157,10.479 44.493,4.105c1.442,-0.631 2.901,-1.229 4.369,-1.784c14.601,-5.504 25.173,-18.44 28.169,-34.202l1.604,0c2.995,15.753 13.577,28.698 28.169,34.193c1.468,0.555 2.927,1.152 4.369,1.792c14.336,6.374 31.053,4.753 44.493,-4.105l1.22,1.22c-8.858,13.44 -10.479,30.157 -4.104,44.484c0.64,1.442 1.237,2.901 1.792,4.378c5.495,14.601 18.44,25.173 34.193,28.169l0,1.605z"/>
   <path id="svg_3" fill="#e6d72b" d="m153.61,162.12c-32.939,0 -59.733,26.795 -59.733,59.733c0,32.939 26.795,59.733 59.733,59.733s59.733,-26.795 59.733,-59.733c0,-32.939 -26.795,-59.733 -59.733,-59.733zm0,102.4c-23.526,0 -42.667,-19.14 -42.667,-42.667c0,-23.526 19.14,-42.667 42.667,-42.667c23.526,0 42.667,19.14 42.667,42.667c-0.001,23.527 -19.141,42.667 -42.667,42.667z"/>
   <path id="svg_4" fill="#e6d72b" d="m504.52,95.403l-3.797,-0.478c-8.687,-1.092 -16.162,-6.75 -19.055,-14.421c-0.589,-1.545 -1.212,-3.081 -1.886,-4.591c-3.524,-7.927 -2.185,-17.391 3.499,-24.695l1.92,-2.458c2.645,-3.396 2.347,-8.226 -0.7,-11.273l-9.984,-9.984c-3.046,-3.046 -7.876,-3.345 -11.273,-0.708l-2.466,1.92c-7.313,5.683 -16.777,7.04 -24.695,3.507c-1.527,-0.683 -3.063,-1.314 -4.599,-1.886c-7.791,-2.935 -13.32,-10.24 -14.421,-19.055l-0.469,-3.797c-0.538,-4.267 -4.173,-7.475 -8.474,-7.475l-14.123,0c-4.301,0 -7.936,3.208 -8.465,7.475l-0.469,3.789c-1.092,8.687 -6.75,16.171 -14.404,19.055c-1.562,0.589 -3.098,1.212 -4.617,1.894c-7.919,3.516 -17.391,2.185 -24.704,-3.507l-2.466,-1.911c-3.396,-2.637 -8.226,-2.33 -11.264,0.708l-9.984,9.984c-3.046,3.046 -3.345,7.876 -0.7,11.273l1.911,2.458c5.683,7.313 7.031,16.777 3.507,24.695c-0.674,1.519 -1.297,3.046 -1.886,4.599c-2.884,7.663 -10.359,13.329 -19.055,14.413l-3.797,0.478c-4.275,0.529 -7.475,4.164 -7.475,8.465l0,14.123c0,4.301 3.208,7.936 7.475,8.465l3.797,0.478c8.695,1.092 16.171,6.75 19.063,14.421c0.589,1.544 1.212,3.081 1.886,4.591c3.524,7.927 2.176,17.391 -3.507,24.695l-1.911,2.458c-2.645,3.396 -2.347,8.226 0.7,11.273l9.984,9.984c3.046,3.046 7.876,3.354 11.273,0.708l2.466,-1.92c7.313,-5.683 16.777,-7.023 24.695,-3.507c1.527,0.683 3.063,1.314 4.599,1.886c7.791,2.935 13.312,10.24 14.413,19.055l0.478,3.797c0.529,4.267 4.164,7.475 8.465,7.475l14.123,0c4.309,0 7.945,-3.209 8.448,-7.475l0.469,-3.789c1.109,-8.823 6.63,-16.128 14.404,-19.055c1.562,-0.589 3.098,-1.212 4.617,-1.894c7.927,-3.524 17.399,-2.185 24.704,3.507l2.466,1.911c3.396,2.637 8.235,2.33 11.273,-0.708l9.984,-9.984c3.046,-3.046 3.345,-7.876 0.7,-11.273l-1.911,-2.458c-5.683,-7.313 -7.031,-16.777 -3.507,-24.695c0.674,-1.519 1.306,-3.046 1.886,-4.599c2.893,-7.663 10.368,-13.329 19.063,-14.413l3.797,-0.478c4.267,-0.529 7.467,-4.164 7.467,-8.465l0,-14.123c-0.001,-4.301 -3.201,-7.936 -7.468,-8.465zm-38.81,39.919c-0.461,1.237 -0.973,2.466 -1.51,3.686c-5.367,12.058 -4.326,26.018 2.534,37.572c-11.563,-6.861 -25.515,-7.902 -37.589,-2.534c-1.203,0.538 -2.423,1.041 -3.669,1.51c-12.186,4.599 -21.205,15.044 -24.405,27.904c-3.2,-12.868 -12.22,-23.313 -24.422,-27.913c-1.229,-0.461 -2.449,-0.964 -3.661,-1.502c-5.154,-2.287 -10.65,-3.413 -16.162,-3.413c-7.39,0 -14.797,2.022 -21.41,5.948c6.861,-11.563 7.902,-25.515 2.534,-37.581c-0.546,-1.22 -1.041,-2.441 -1.51,-3.678c-4.591,-12.194 -15.036,-21.205 -27.904,-24.405c12.868,-3.191 23.313,-12.211 27.904,-24.397c0.461,-1.237 0.964,-2.466 1.51,-3.686c5.367,-12.058 4.326,-26.018 -2.534,-37.572c11.554,6.869 25.515,7.893 37.589,2.534c1.203,-0.538 2.423,-1.041 3.669,-1.51c12.186,-4.599 21.197,-15.044 24.397,-27.904c3.2,12.868 12.22,23.313 24.422,27.913c1.229,0.461 2.449,0.964 3.661,1.502c12.058,5.367 26.018,4.318 37.572,-2.534c-6.861,11.563 -7.893,25.515 -2.534,37.581c0.546,1.22 1.05,2.44 1.51,3.678c4.599,12.194 15.044,21.205 27.913,24.405c-12.869,3.19 -23.314,12.21 -27.905,24.396z"/>
   <path id="svg_5" fill="#e6d72b" d="m384.01,332.79c-28.228,0 -51.2,22.963 -51.2,51.2s22.972,51.2 51.2,51.2s51.2,-22.963 51.2,-51.2c0,-28.236 -22.964,-51.2 -51.2,-51.2zm0,85.334c-18.825,0 -34.133,-15.309 -34.133,-34.133c0,-18.825 15.309,-34.133 34.133,-34.133c18.816,0 34.133,15.309 34.133,34.133s-15.309,34.133 -34.133,34.133z"/>
   <path id="svg_6" fill="#e6d72b" d="m401.08,76.791c-18.825,0 -34.133,15.309 -34.133,34.133s15.309,34.133 34.133,34.133c18.816,0 34.133,-15.309 34.133,-34.133s-15.308,-34.133 -34.133,-34.133zm0,51.2c-9.412,0 -17.067,-7.654 -17.067,-17.067c0,-9.412 7.654,-17.067 17.067,-17.067c9.412,0 17.067,7.654 17.067,17.067s-7.655,17.067 -17.067,17.067z"/>
  </g>
 </g>
</svg>