<?xml version="1.0" encoding="utf-8"?>
<!-- Generator: Adobe Illustrator 22.1.0, SVG Export Plug-In . SVG Version: 6.00 Build 0)  -->
<svg version="1.1" id="Слой_1" xmlns="http://www.w3.org/2000/svg" xmlns:xlink="http://www.w3.org/1999/xlink" x="0px" y="0px"
	 viewBox="0 0 512 512" style="enable-background:new 0 0 512 512;" xml:space="preserve">
<style type="text/css">
	.st0{fill:none;}
	.st1{fill:#D80000;}
</style>
<g>
	<title>background</title>
	<rect id="canvas_background" x="-1" y="-1" class="st0" width="582" height="402"/>
</g>
<g>
	<title>Layer 1</title>
	<g id="svg_7">
		<path id="svg_1" class="st1" d="M299.7,203.4l-5.4-0.7c-13.8-1.7-25.3-10.4-29.9-22.7c-0.8-2.1-1.7-4.2-2.6-6.3
			c-5.5-12.4-3.5-27.2,5.4-38.6l2.7-3.5c2.6-3.4,2.3-8.2-0.7-11.3l-14.1-14.1c-3-3-7.9-3.3-11.3-0.7l-3.5,2.7
			c-11.4,8.9-26.2,10.9-38.6,5.4c-2.1-0.9-4.2-1.8-6.3-2.6c-12.3-4.6-21-16.1-22.7-29.9l-0.7-5.4c-0.5-4.3-4.2-7.5-8.5-7.5h-20
			c-4.3,0-7.9,3.2-8.5,7.5l-0.7,5.4c-1.7,13.8-10.4,25.3-22.7,29.9c-2.1,0.8-4.2,1.7-6.3,2.6c-12.4,5.5-27.2,3.4-38.6-5.4l-3.5-2.7
			c-3.4-2.7-8.2-2.3-11.3,0.7l-14.1,14.1c-3,3-3.4,7.9-0.7,11.3l2.7,3.5c8.9,11.4,10.9,26.2,5.4,38.6c-0.9,2.1-1.8,4.2-2.6,6.3
			c-4.6,12.3-16.1,21-29.9,22.7l-5.4,0.7c-4.3,0.5-7.5,4.2-7.5,8.5v20c0,4.3,3.2,7.9,7.5,8.5l5.4,0.7c13.8,1.7,25.3,10.4,29.9,22.7
			c0.8,2.1,1.7,4.2,2.6,6.3c5.5,12.4,3.5,27.2-5.4,38.6l-2.7,3.5c-2.6,3.4-2.3,8.2,0.7,11.3l14.1,14.1c3,3.1,7.9,3.4,11.3,0.7
			l3.5-2.7c11.4-8.9,26.2-10.9,38.6-5.4c2.1,0.9,4.2,1.8,6.3,2.6c12.3,4.6,21,16.1,22.7,29.9l0.7,5.4c0.5,4.3,4.2,7.5,8.5,7.5h20
			c4.3,0,7.9-3.2,8.5-7.5l0.7-5.4c1.7-13.8,10.4-25.3,22.7-29.9c2.1-0.8,4.2-1.7,6.3-2.6c12.4-5.5,27.2-3.5,38.6,5.4l3.5,2.7
			c3.4,2.6,8.2,2.3,11.3-0.7l14.1-14.1c3-3,3.4-7.9,0.7-11.3l-2.7-3.5c-8.9-11.4-10.9-26.2-5.4-38.6c0.9-2.1,1.8-4.2,2.6-6.3
			c4.6-12.3,16.1-21,29.9-22.7l5.4-0.7c4.3-0.5,7.5-4.2,7.5-8.5v-20C307.2,207.5,304,203.9,299.7,203.4L299.7,203.4z M290.1,224.4
			c-19.2,3.1-35,15.7-41.6,33.3c-0.7,1.8-1.4,3.6-2.2,5.4c-7.7,17.3-5.5,37.5,5.7,53.5l-3.6,3.6c-16-11.1-36.2-13.4-53.5-5.7
			c-1.8,0.8-3.6,1.5-5.4,2.2c-17.6,6.6-30.2,22.5-33.3,41.6h-5c-3.1-19.2-15.7-35-33.3-41.6c-1.8-0.7-3.6-1.4-5.4-2.2
			c-17.3-7.7-37.5-5.5-53.5,5.7l-3.6-3.6c11.1-16,13.4-36.2,5.7-53.5c-0.8-1.8-1.5-3.6-2.2-5.4c-6.6-17.6-22.5-30.2-41.6-33.3v-5
			c19.2-3.1,35-15.7,41.6-33.3c0.7-1.8,1.4-3.6,2.2-5.4c7.7-17.3,5.5-37.5-5.7-53.5l3.6-3.6c16,11.1,36.2,13.4,53.5,5.7
			c1.8-0.8,3.6-1.5,5.4-2.2c17.6-6.6,30.2-22.5,33.3-41.6h5c3.1,19.2,15.7,35,33.3,41.6c1.8,0.7,3.6,1.4,5.4,2.2
			c17.3,7.7,37.5,5.5,53.5-5.7l3.6,3.6c-11.2,16-13.4,36.2-5.7,53.5c0.8,1.8,1.5,3.6,2.2,5.4c6.6,17.6,22.5,30.2,41.6,33.3
			L290.1,224.4L290.1,224.4L290.1,224.4z"/>
		<path id="svg_2" class="st1" d="M504.5,367.3l-4.4-0.6c-10.8-1.4-19.8-8.1-23.4-17.7c-0.7-1.8-1.4-3.5-2.2-5.3
			c-4.3-9.7-2.7-21.3,4.3-30.3l2.2-2.9c2.6-3.4,2.3-8.2-0.7-11.3l-11.7-11.6c-3-3-7.9-3.3-11.3-0.7l-2.9,2.2
			c-8.9,7-20.5,8.6-30.3,4.3c-1.7-0.8-3.5-1.5-5.3-2.2c-9.6-3.6-16.4-12.6-17.7-23.4l-0.6-4.4c-0.5-4.3-4.2-7.5-8.5-7.5h-16.5
			c-4.3,0-7.9,3.2-8.5,7.5l-0.5,4.4c-1.4,10.8-8.1,19.8-17.7,23.4c-1.8,0.7-3.5,1.4-5.3,2.2c-9.7,4.3-21.3,2.7-30.3-4.3l-2.9-2.2
			c-3.4-2.6-8.2-2.3-11.3,0.7l-11.6,11.6c-3,3-3.4,7.9-0.7,11.3l2.2,2.9c7,8.9,8.6,20.5,4.3,30.3c-0.8,1.7-1.5,3.5-2.2,5.3
			c-3.6,9.6-12.6,16.4-23.4,17.7l-4.4,0.6c-4.3,0.5-7.5,4.2-7.5,8.5v16.5c0,4.3,3.2,7.9,7.5,8.5l4.4,0.6
			c10.8,1.4,19.8,8.1,23.4,17.7c0.7,1.8,1.4,3.5,2.2,5.3c4.3,9.7,2.7,21.3-4.3,30.3l-2.2,2.9c-2.6,3.4-2.3,8.2,0.7,11.3l11.6,11.6
			c3,3,7.9,3.3,11.3,0.7l2.9-2.2c8.9-7,20.5-8.6,30.3-4.3c1.7,0.8,3.5,1.5,5.3,2.2c9.6,3.6,16.4,12.6,17.7,23.4l0.5,4.4
			c0.5,4.3,4.2,7.5,8.5,7.5h16.5c4.3,0,7.9-3.2,8.5-7.5l0.5-4.4c1.4-10.8,8.1-19.8,17.7-23.4c1.8-0.7,3.5-1.4,5.3-2.2
			c9.7-4.3,21.3-2.7,30.3,4.3l2.9,2.2c3.4,2.6,8.2,2.3,11.3-0.7l11.7-11.6c3-3,3.3-7.9,0.7-11.3l-2.2-2.9c-7-8.9-8.6-20.5-4.3-30.3
			c0.8-1.7,1.5-3.5,2.2-5.3c3.6-9.6,12.6-16.4,23.4-17.7l4.4-0.6c4.3-0.5,7.5-4.2,7.5-8.5v-16.5C512,371.5,508.8,367.8,504.5,367.3
			L504.5,367.3z M494.9,384.8c-15.8,3-28.7,13.6-34.2,28.2c-0.5,1.5-1.1,2.9-1.8,4.4c-6.4,14.3-4.8,31,4.1,44.5l-1.2,1.2
			c-13.4-8.9-30.2-10.5-44.5-4.1c-1.4,0.6-2.9,1.2-4.4,1.8c-14.6,5.5-25.2,18.4-28.2,34.2h-1.6c-3-15.8-13.6-28.7-28.2-34.2
			c-1.5-0.6-2.9-1.2-4.4-1.8c-14.3-6.4-31.1-4.8-44.5,4.1l-1.2-1.2c8.9-13.4,10.5-30.2,4.1-44.5c-0.6-1.4-1.2-2.9-1.8-4.4
			c-5.5-14.6-18.4-25.2-34.2-28.2v-1.6c15.8-3,28.7-13.6,34.2-28.2c0.6-1.5,1.2-2.9,1.8-4.4c6.4-14.3,4.8-31-4.1-44.5l1.2-1.2
			c13.4,8.9,30.2,10.5,44.5,4.1c1.4-0.6,2.9-1.2,4.4-1.8c14.6-5.5,25.2-18.4,28.2-34.2h1.6c3,15.8,13.6,28.7,28.2,34.2
			c1.5,0.6,2.9,1.2,4.4,1.8c14.3,6.4,31.1,4.8,44.5-4.1l1.2,1.2c-8.9,13.4-10.5,30.2-4.1,44.5c0.6,1.4,1.2,2.9,1.8,4.4
			c5.5,14.6,18.4,25.2,34.2,28.2V384.8z"/>
		<path id="svg_3" class="st1" d="M153.6,162.1c-32.9,0-59.7,26.8-59.7,59.7c0,32.9,26.8,59.7,59.7,59.7s59.7-26.8,59.7-59.7
			C213.3,188.9,186.5,162.1,153.6,162.1z M153.6,264.5c-23.5,0-42.7-19.1-42.7-42.7c0-23.5,19.1-42.7,42.7-42.7
			c23.5,0,42.7,19.1,42.7,42.7C196.3,245.4,177.1,264.5,153.6,264.5L153.6,264.5z"/>
		<path id="svg_4" class="st1" d="M504.5,95.4l-3.8-0.5c-8.7-1.1-16.2-6.8-19.1-14.4c-0.6-1.5-1.2-3.1-1.9-4.6
			c-3.5-7.9-2.2-17.4,3.5-24.7l1.9-2.5c2.6-3.4,2.3-8.2-0.7-11.3l-10-10c-3-3-7.9-3.3-11.3-0.7l-2.5,1.9c-7.3,5.7-16.8,7-24.7,3.5
			c-1.5-0.7-3.1-1.3-4.6-1.9c-7.8-2.9-13.3-10.2-14.4-19.1l-0.5-3.8c-0.5-4.3-4.2-7.5-8.5-7.5H394c-4.3,0-7.9,3.2-8.5,7.5l-0.5,3.8
			c-1.1,8.7-6.8,16.2-14.4,19.1c-1.6,0.6-3.1,1.2-4.6,1.9c-7.9,3.5-17.4,2.2-24.7-3.5l-2.5-1.9c-3.4-2.6-8.2-2.3-11.3,0.7l-10,10
			c-3,3-3.3,7.9-0.7,11.3l1.9,2.5c5.7,7.3,7,16.8,3.5,24.7c-0.7,1.5-1.3,3-1.9,4.6c-2.9,7.7-10.4,13.3-19.1,14.4l-3.8,0.5
			c-4.3,0.5-7.5,4.2-7.5,8.5V118c0,4.3,3.2,7.9,7.5,8.5l3.8,0.5c8.7,1.1,16.2,6.8,19.1,14.4c0.6,1.5,1.2,3.1,1.9,4.6
			c3.5,7.9,2.2,17.4-3.5,24.7l-1.9,2.5c-2.6,3.4-2.3,8.2,0.7,11.3l10,10c3,3,7.9,3.4,11.3,0.7l2.5-1.9c7.3-5.7,16.8-7,24.7-3.5
			c1.5,0.7,3.1,1.3,4.6,1.9c7.8,2.9,13.3,10.2,14.4,19.1l0.5,3.8c0.5,4.3,4.2,7.5,8.5,7.5h14.1c4.3,0,7.9-3.2,8.4-7.5l0.5-3.8
			c1.1-8.8,6.6-16.1,14.4-19.1c1.6-0.6,3.1-1.2,4.6-1.9c7.9-3.5,17.4-2.2,24.7,3.5l2.5,1.9c3.4,2.6,8.2,2.3,11.3-0.7l10-10
			c3-3,3.3-7.9,0.7-11.3l-1.9-2.5c-5.7-7.3-7-16.8-3.5-24.7c0.7-1.5,1.3-3,1.9-4.6c2.9-7.7,10.4-13.3,19.1-14.4l3.8-0.5
			c4.3-0.5,7.5-4.2,7.5-8.5v-14.1C512,99.6,508.8,95.9,504.5,95.4L504.5,95.4z M465.7,135.3c-0.5,1.2-1,2.5-1.5,3.7
			c-5.4,12.1-4.3,26,2.5,37.6c-11.6-6.9-25.5-7.9-37.6-2.5c-1.2,0.5-2.4,1-3.7,1.5c-12.2,4.6-21.2,15-24.4,27.9
			c-3.2-12.9-12.2-23.3-24.4-27.9c-1.2-0.5-2.4-1-3.7-1.5c-5.2-2.3-10.6-3.4-16.2-3.4c-7.4,0-14.8,2-21.4,5.9
			c6.9-11.6,7.9-25.5,2.5-37.6c-0.5-1.2-1-2.4-1.5-3.7c-4.6-12.2-15-21.2-27.9-24.4c12.9-3.2,23.3-12.2,27.9-24.4
			c0.5-1.2,1-2.5,1.5-3.7c5.4-12.1,4.3-26-2.5-37.6c11.6,6.9,25.5,7.9,37.6,2.5c1.2-0.5,2.4-1,3.7-1.5c12.2-4.6,21.2-15,24.4-27.9
			c3.2,12.9,12.2,23.3,24.4,27.9c1.2,0.5,2.4,1,3.7,1.5c12.1,5.4,26,4.3,37.6-2.5c-6.9,11.6-7.9,25.5-2.5,37.6
			c0.5,1.2,1,2.4,1.5,3.7c4.6,12.2,15,21.2,27.9,24.4C480.7,114.1,470.3,123.1,465.7,135.3L465.7,135.3z"/>
		<path id="svg_5" class="st1" d="M384,332.8c-28.2,0-51.2,23-51.2,51.2s23,51.2,51.2,51.2s51.2-23,51.2-51.2
			C435.2,355.8,412.2,332.8,384,332.8z M384,418.1c-18.8,0-34.1-15.3-34.1-34.1c0-18.8,15.3-34.1,34.1-34.1
			c18.8,0,34.1,15.3,34.1,34.1S402.8,418.1,384,418.1z"/>
		<path id="svg_6" class="st1" d="M401.1,76.8c-18.8,0-34.1,15.3-34.1,34.1s15.3,34.1,34.1,34.1c18.8,0,34.1-15.3,34.1-34.1
			S419.9,76.8,401.1,76.8z M401.1,128c-9.4,0-17.1-7.7-17.1-17.1c0-9.4,7.7-17.1,17.1-17.1c9.4,0,17.1,7.7,17.1,17.1
			S410.5,128,401.1,128z"/>
	</g>
</g>
</svg>
