<?xml version="1.0" encoding="utf-8"?>
<!-- Generator: Adobe Illustrator 22.1.0, SVG Export Plug-In . SVG Version: 6.00 Build 0)  -->
<svg version="1.1" id="Capa_1" xmlns="http://www.w3.org/2000/svg" xmlns:xlink="http://www.w3.org/1999/xlink" x="0px" y="0px"
	 viewBox="0 0 512 512" style="enable-background:new 0 0 512 512;" xml:space="preserve">
<style type="text/css">
	.st0{fill:#D80000;}
</style>
<g>
	<path class="st0" d="M503.2,53H8.8C4,53,0,56.9,0,61.8v388.4c0,4.9,4,8.8,8.8,8.8h494.3c4.9,0,8.8-3.9,8.8-8.8V61.8
		C512,56.9,508,53,503.2,53z M494.3,441.4H17.7V70.6h476.7V441.4z"/>
	<path class="st0" d="M141.2,248.4c27.1,0,49.2-22.1,49.2-49.2c0-27.1-22.1-49.2-49.2-49.2s-49.2,22.1-49.2,49.2
		S114.1,248.4,141.2,248.4z M141.2,167.7c17.4,0,31.5,14.1,31.5,31.5s-14.1,31.5-31.5,31.5s-31.5-14.1-31.5-31.5
		S123.9,167.7,141.2,167.7z"/>
	<path class="st0" d="M61.8,406.1c2.1,0,4.1-0.7,5.8-2.2l144-126.8l90.9,90.9c3.5,3.5,9,3.5,12.5,0c3.5-3.5,3.5-9,0-12.5l-42.4-42.4
		l81-88.8l99.4,91.1c3.6,3.3,9.2,3,12.5-0.5c3.3-3.6,3.1-9.2-0.5-12.5l-105.9-97.1c-1.7-1.6-4-2.4-6.4-2.3c-2.3,0.1-4.5,1.1-6.1,2.9
		l-86.5,94.7l-41.9-41.9c-3.3-3.3-8.6-3.5-12.1-0.4L56,390.6c-3.7,3.2-4,8.8-0.8,12.5C56.9,405.1,59.3,406.1,61.8,406.1z"/>
</g>
</svg>
