<svg width="60" height="60" xmlns="http://www.w3.org/2000/svg" xmlns:xlink="http://www.w3.org/1999/xlink"><g fill="#2980B9"><use xlink:href="#path0_fill"/><use xlink:href="#path1_fill"/><use xlink:href="#path2_fill"/><use xlink:href="#path3_fill"/><use xlink:href="#path4_fill"/></g><defs><path id="path0_fill" fill-rule="evenodd" d="M0 14.845h60v14.227H36.186a1.546 1.546 0 1 1 0-3.093h20.721v-8.04H3.093v8.04h20.721a1.546 1.546 0 1 1 0 3.093H0V14.845z"/><path id="path1_fill" fill-rule="evenodd" d="M22.268 14.845h15.464V60H22.268V14.845zm3.093 3.093v38.97h9.278v-38.97h-9.278z"/><path id="path2_fill" fill-rule="evenodd" d="M2.474 25.98h21.34a1.546 1.546 0 1 1 0 3.092H5.567v27.835h48.866V29.072H36.186a1.546 1.546 0 1 1 0-3.093h21.34V60H2.474V25.98z"/><path id="path3_fill" fill-rule="evenodd" d="M11.227 4.169c-.488.58-.712 1.41-.712 2.326 0 2.13 1.083 3.86 2.863 5.116 1.806 1.274 4.268 1.997 6.725 1.997h4.174c-.962-1.193-1.79-2.626-2.56-3.954-.102-.178-.203-.353-.304-.525-2.054-3.529-3.825-6.036-7.1-6.036-1.784 0-2.64.547-3.086 1.076zM30 13.609c-1.15 0-2.08-.53-3.032-1.605-.904-1.022-1.685-2.369-2.587-3.924l-.295-.508C22.18 4.297 19.593 0 14.312 0c-2.474 0-4.289.797-5.45 2.177-1.12 1.329-1.44 2.972-1.44 4.318 0 3.337 1.752 5.936 4.173 7.643 2.394 1.69 5.5 2.563 8.508 2.563h9.896a1.547 1.547 0 0 0 0-3.093z"/><path id="path4_fill" fill-rule="evenodd" d="M35.914 7.572C37.82 4.297 40.407 0 45.688 0c2.474 0 4.289.797 5.45 2.177 1.12 1.329 1.44 2.972 1.44 4.318 0 3.337-1.752 5.936-4.173 7.643-2.395 1.69-5.5 2.563-8.508 2.563H30a1.546 1.546 0 1 1 0-3.093c1.15 0 2.08-.528 3.032-1.604.904-1.022 1.685-2.369 2.587-3.924l.295-.508zm-.19 6.036h4.173c2.457 0 4.919-.723 6.725-1.997 1.78-1.255 2.862-2.986 2.862-5.116 0-.916-.223-1.747-.711-2.326-.446-.53-1.302-1.076-3.085-1.076-3.276 0-5.047 2.507-7.102 6.036l-.304.525c-.768 1.328-1.597 2.761-2.559 3.954z"/></defs></svg>