<svg width="80" height="100" xmlns="http://www.w3.org/2000/svg" xmlns:xlink="http://www.w3.org/1999/xlink"><g fill="#DDD"><use xlink:href="#path0_fill"/><use xlink:href="#path1_fill"/><use xlink:href="#path2_fill"/><use xlink:href="#path3_fill"/><use xlink:href="#path4_fill"/><use xlink:href="#path5_fill"/><use xlink:href="#path6_fill"/></g><g transform="translate(29 52)" fill="red"><use xlink:href="#path7_fill"/><use xlink:href="#path8_fill"/><use xlink:href="#path9_fill"/></g><defs><path id="path0_fill" fill-rule="evenodd" d="M5 0a5 5 0 0 0-5 5v90a5 5 0 0 0 5 5h70a5 5 0 0 0 5-5V5a5 5 0 0 0-5-5H5zm23 2H5a3 3 0 0 0-3 3v20h26V2zm2 0v23h48V5a3 3 0 0 0-3-3H30zM2 95V27h76v68a3 3 0 0 1-3 3H5a3 3 0 0 1-3-3z"/><path id="path1_fill" fill-rule="evenodd" d="M23 15H7v6h16v-6zM5 13v10h20V13H5z"/><path id="path2_fill" fill-rule="evenodd" d="M68.5 21a4.5 4.5 0 1 0 0-9 4.5 4.5 0 0 0 0 9zm0 2a6.5 6.5 0 1 0 0-13 6.5 6.5 0 0 0 0 13z"/><path id="path3_fill" fill-rule="evenodd" d="M36.5 22a2.5 2.5 0 1 0 0-5 2.5 2.5 0 0 0 0 5zm0 1a3.5 3.5 0 1 0 0-7 3.5 3.5 0 0 0 0 7z"/><path id="path4_fill" fill-rule="evenodd" d="M45.5 22a2.5 2.5 0 1 0 0-5 2.5 2.5 0 0 0 0 5zm0 1a3.5 3.5 0 1 0 0-7 3.5 3.5 0 0 0 0 7z"/><path id="path5_fill" fill-rule="evenodd" d="M54.5 22a2.5 2.5 0 1 0 0-5 2.5 2.5 0 0 0 0 5zm0 1a3.5 3.5 0 1 0 0-7 3.5 3.5 0 0 0 0 7z"/><path id="path6_fill" fill-rule="evenodd" d="M65 57c0 13.807-11.193 25-25 25S15 70.807 15 57s11.193-25 25-25 25 11.193 25 25zm-4.796 11C56.304 75.15 48.718 80 40 80s-16.303-4.85-20.204-12h5.955c3.292 4.258 8.45 7 14.249 7 5.799 0 10.957-2.742 14.249-7h5.955zM61 66.395c1.285-2.869 2-6.048 2-9.395 0-12.703-10.297-23-23-23S17 44.297 17 57c0 3.347.715 6.526 2 9.395V66h5.408A17.918 17.918 0 0 1 22 57c0-9.941 8.059-18 18-18s18 8.059 18 18c0 3.279-.877 6.352-2.408 9H61v.395zM56 57c0 8.837-7.163 16-16 16s-16-7.163-16-16 7.163-16 16-16 16 7.163 16 16z"/><path id="path7_fill" d="M8.126 6.202v1.316l-1.176.196h-.028v2.128H4.948V7.714H1.126c-.42 0-.738-.163-.952-.49-.206-.327-.229-.686-.07-1.078L2.61.182h2.016L2.33 5.74c-.066.159-.07.275-.014.35.056.075.154.112.294.112h2.338V3.598l.35-1.54h1.624v4.144h1.204z"/><path id="path8_fill" d="M10.786 0c.514 0 .957.182 1.33.546.383.355.574.789.574 1.302s-.186.957-.56 1.33a1.857 1.857 0 0 1-1.344.546c-.522 0-.97-.182-1.344-.546a1.817 1.817 0 0 1-.56-1.33c0-.513.187-.947.56-1.302A1.857 1.857 0 0 1 10.786 0zm.574 1.26a.777.777 0 0 0-.574-.224.825.825 0 0 0-.588.224.795.795 0 0 0-.224.588.816.816 0 0 0 .812.84.816.816 0 0 0 .812-.84.77.77 0 0 0-.238-.588z"/><path id="path9_fill" d="M20.82 8.036l.183 1.582c-.84.261-1.871.392-3.094.392-1.493 0-2.543-.373-3.15-1.12-.607-.747-.91-2.04-.91-3.878 0-1.839.303-3.131.91-3.878.607-.747 1.657-1.12 3.15-1.12 1.083 0 2.049.107 2.898.322l-.182 1.596a44.977 44.977 0 0 0-2.716-.07c-.7 0-1.18.224-1.442.672-.252.439-.378 1.265-.378 2.478 0 1.213.126 2.044.378 2.492.261.439.742.658 1.442.658 1.297 0 2.268-.042 2.912-.126z"/></defs></svg>