<svg width="80" height="100" xmlns="http://www.w3.org/2000/svg" xmlns:xlink="http://www.w3.org/1999/xlink"><g fill="#DDD"><use xlink:href="#path0_fill"/><use xlink:href="#path1_fill"/><use xlink:href="#path2_fill"/><use xlink:href="#path3_fill"/><use xlink:href="#path4_fill"/><use xlink:href="#path5_fill"/><use xlink:href="#path6_fill"/></g><use xlink:href="#path7_fill" transform="translate(22 39)" fill="red"/><defs><path id="path0_fill" fill-rule="evenodd" d="M5 0a5 5 0 0 0-5 5v90a5 5 0 0 0 5 5h70a5 5 0 0 0 5-5V5a5 5 0 0 0-5-5H5zm23 2H5a3 3 0 0 0-3 3v20h26V2zm2 0v23h48V5a3 3 0 0 0-3-3H30zM2 95V27h76v68a3 3 0 0 1-3 3H5a3 3 0 0 1-3-3z"/><path id="path1_fill" fill-rule="evenodd" d="M23 15H7v6h16v-6zM5 13v10h20V13H5z"/><path id="path2_fill" fill-rule="evenodd" d="M68.5 21a4.5 4.5 0 1 0 0-9 4.5 4.5 0 0 0 0 9zm0 2a6.5 6.5 0 1 0 0-13 6.5 6.5 0 0 0 0 13z"/><path id="path3_fill" fill-rule="evenodd" d="M36.5 22a2.5 2.5 0 1 0 0-5 2.5 2.5 0 0 0 0 5zm0 1a3.5 3.5 0 1 0 0-7 3.5 3.5 0 0 0 0 7z"/><path id="path4_fill" fill-rule="evenodd" d="M45.5 22a2.5 2.5 0 1 0 0-5 2.5 2.5 0 0 0 0 5zm0 1a3.5 3.5 0 1 0 0-7 3.5 3.5 0 0 0 0 7z"/><path id="path5_fill" fill-rule="evenodd" d="M54.5 22a2.5 2.5 0 1 0 0-5 2.5 2.5 0 0 0 0 5zm0 1a3.5 3.5 0 1 0 0-7 3.5 3.5 0 0 0 0 7z"/><path id="path6_fill" fill-rule="evenodd" d="M40 82c13.807 0 25-11.193 25-25S53.807 32 40 32 15 43.193 15 57s11.193 25 25 25zm21-15.605c1.285-2.869 2-6.048 2-9.395 0-12.703-10.297-23-23-23S17 44.297 17 57c0 3.347.715 6.526 2 9.395V66h7v2h-6.204c3.9 7.15 11.486 12 20.204 12s16.303-4.85 20.204-12H54v-2h7v.395z"/><path id="path7_fill" fill-rule="evenodd" d="M18 34c8.837 0 16-7.163 16-16S26.837 2 18 2 2 9.163 2 18s7.163 16 16 16zm0 2c9.941 0 18-8.059 18-18S27.941 0 18 0 0 8.059 0 18s8.059 18 18 18z"/></defs></svg>