<svg width="80" height="100" xmlns="http://www.w3.org/2000/svg" xmlns:xlink="http://www.w3.org/1999/xlink"><g fill="#DDD"><use xlink:href="#path0_fill"/><use xlink:href="#path1_fill"/><use xlink:href="#path2_fill"/><use xlink:href="#path3_fill"/><use xlink:href="#path4_fill"/><use xlink:href="#path5_fill"/><use xlink:href="#path6_fill"/></g><g transform="translate(30 53)" fill="red"><use xlink:href="#path7_fill"/><use xlink:href="#path8_fill"/></g><defs><path id="path0_fill" fill-rule="evenodd" d="M5 0a5 5 0 0 0-5 5v90a5 5 0 0 0 5 5h70a5 5 0 0 0 5-5V5a5 5 0 0 0-5-5H5zm23 2H5a3 3 0 0 0-3 3v20h26V2zm2 0v23h48V5a3 3 0 0 0-3-3H30zM2 95V27h76v68a3 3 0 0 1-3 3H5a3 3 0 0 1-3-3z"/><path id="path1_fill" fill-rule="evenodd" d="M68.5 21a4.5 4.5 0 1 0 0-9 4.5 4.5 0 0 0 0 9zm0 2a6.5 6.5 0 1 0 0-13 6.5 6.5 0 0 0 0 13z"/><path id="path2_fill" fill-rule="evenodd" d="M36.5 22a2.5 2.5 0 1 0 0-5 2.5 2.5 0 0 0 0 5zm0 1a3.5 3.5 0 1 0 0-7 3.5 3.5 0 0 0 0 7z"/><path id="path3_fill" fill-rule="evenodd" d="M45.5 22a2.5 2.5 0 1 0 0-5 2.5 2.5 0 0 0 0 5zm0 1a3.5 3.5 0 1 0 0-7 3.5 3.5 0 0 0 0 7z"/><path id="path4_fill" fill-rule="evenodd" d="M54.5 22a2.5 2.5 0 1 0 0-5 2.5 2.5 0 0 0 0 5zm0 1a3.5 3.5 0 1 0 0-7 3.5 3.5 0 0 0 0 7z"/><path id="path5_fill" fill-rule="evenodd" d="M65 57c0 13.807-11.193 25-25 25S15 70.807 15 57s11.193-25 25-25 25 11.193 25 25zm-4.796 11C56.304 75.15 48.718 80 40 80s-16.303-4.85-20.204-12h5.955c3.292 4.258 8.45 7 14.249 7 5.799 0 10.957-2.742 14.249-7h5.955zM61 66.395c1.285-2.869 2-6.048 2-9.395 0-12.703-10.297-23-23-23S17 44.297 17 57c0 3.347.715 6.526 2 9.395V66h5.408A17.918 17.918 0 0 1 22 57c0-9.941 8.059-18 18-18s18 8.059 18 18c0 3.279-.877 6.352-2.408 9H61v.395zM56 57c0 8.837-7.163 16-16 16s-16-7.163-16-16 7.163-16 16-16 16 7.163 16 16z"/><path id="path6_fill" fill-rule="evenodd" d="M23 15H7v6h16v-6zM5 13v10h20V13H5z"/><path id="path7_fill" fill-rule="evenodd" d="M5.849 0c.118 0 .231.051.314.143l2.453 2.701L11.07.143A.425.425 0 0 1 11.384 0c.118 0 .231.051.314.143l2.453 2.701L16.604.143A.425.425 0 0 1 16.92 0c.118 0 .23.051.314.143L20 3.19l-.628.667-2.453-2.701-2.454 2.701a.425.425 0 0 1-.314.143.425.425 0 0 1-.314-.143l-2.453-2.701L8.93 3.857A.424.424 0 0 1 8.616 4a.425.425 0 0 1-.314-.143L5.85 1.156 3.396 3.857A.424.424 0 0 1 3.082 4a.424.424 0 0 1-.315-.143L0 .81.628.143l2.454 2.701L5.535.143A.424.424 0 0 1 5.849 0z"/><path id="path8_fill" fill-rule="evenodd" d="M5.849 4c.118 0 .231.051.314.143l2.453 2.701 2.454-2.701A.425.425 0 0 1 11.384 4c.118 0 .231.051.314.143l2.453 2.701 2.453-2.701A.425.425 0 0 1 16.92 4c.118 0 .23.051.314.143L20 7.19l-.628.667-2.453-2.701-2.454 2.701a.425.425 0 0 1-.314.143.425.425 0 0 1-.314-.143l-2.453-2.701L8.93 7.857A.424.424 0 0 1 8.616 8a.425.425 0 0 1-.314-.143L5.85 5.156 3.396 7.857A.424.424 0 0 1 3.082 8a.424.424 0 0 1-.315-.143L0 4.81l.628-.667 2.454 2.701 2.453-2.701A.424.424 0 0 1 5.849 4z"/></defs></svg>