<svg xmlns="http://www.w3.org/2000/svg" xmlns:xlink="http://www.w3.org/1999/xlink" width="86" height="36">
  <use fill="#2980B9" transform="translate(20 20)" xlink:href="#path0_fill"/>
  <use fill="#2980B9" transform="translate(20)" xlink:href="#path1_fill"/>
  <use fill="#2980B9" transform="translate(50 20)" xlink:href="#path2_fill"/>
  <g fill="#2980B9" transform="translate(0 20)">
    <use xlink:href="#path3_fill"/>
    <use xlink:href="#path4_fill"/>
    <use xlink:href="#path5_fill"/>
    <use xlink:href="#path6_fill"/>
  </g>
  <g fill="#2980B9">
    <use xlink:href="#path7_fill"/>
    <use xlink:href="#path8_fill"/>
    <use xlink:href="#path9_fill"/>
    <use xlink:href="#path10_fill"/>
  </g>
  <use fill="#E2907A" transform="translate(70 20)" xlink:href="#path11_fill"/>
  <use fill="#74B65F" transform="translate(70)" xlink:href="#path12_fill"/>
  <g fill="#2980B9" transform="translate(50)">
    <use xlink:href="#path13_fill"/>
    <use xlink:href="#path14_fill"/>
    <use xlink:href="#path15_fill"/>
    <use xlink:href="#path16_fill"/>
  </g>
  <defs>
    <path id="path0_fill" d="M16 12.6364c0 .2045-.0379.4716-.1136.8011-.0758.3295-.1553.589-.2387.7784-.1591.3788-.6212.7803-1.3863 1.2046-.7122.3863-1.4167.5795-2.1137.5795-.2045 0-.4034-.0133-.5966-.0398-.1931-.0265-.4109-.0738-.6534-.142-.2424-.0682-.4223-.1231-.5397-.1648-.1175-.0417-.3277-.1193-.63073-.2329-.30303-.1137-.48863-.1819-.55682-.2046-.74242-.2651-1.4053-.5795-1.98863-.9432-.9697-.5985-1.97159-1.4147-3.00568-2.4488-1.03409-1.0341-1.85038-2.03602-2.44887-3.00572-.36363-.58333-.67803-1.24621-.943179-1.98863-.022727-.06819-.090909-.25379-.204546-.55682-.113636-.30303-.191287-.51326-.232954-.63068C.304924 5.52462.25 5.3447.181818 5.10227c-.068182-.24242-.1155301-.46022-.1420453-.65341C.0132576 4.25568 0 4.05682 0 3.85227c0-.69697.193182-1.40151.579545-2.11363C1.00379.973485 1.4053.511364 1.78409.352273c.18939-.083334.44886-.162879.77841-.238637C2.89205.0378788 3.15909 0 3.36364 0c.10606 0 .1856.0113636.23863.0340909.13637.0454546.33712.3333331.60228.8636361.08333.143943.19697.348483.3409.613633.14394.26516.27652.50569.39773.72159.12121.21591.23864.41857.35227.60796.02273.0303.08902.125.19887.28409.10985.15909.19129.29356.24432.40341.05303.10985.07954.2178.07954.32386 0 .15152-.10795.34091-.32386.56818-.21591.22728-.45076.43561-.70455.625-.25379.1894-.48863.39016-.70454.60228-.21591.21212-.32387.38636-.32387.52272 0 .06819.01894.15341.05682.25569.03788.10227.07008.17992.09659.23295.02652.05303.07955.14394.15909.27273.07955.12879.12311.20076.13069.21591.57575 1.03788 1.23484 1.92803 1.97727 2.67045.74242.74242 1.63257 1.40152 2.67045 1.97732.01515.0075.08712.0511.21591.1306.12879.0796.2197.1326.27273.1591.05303.0265.13068.0587.23295.0966.10228.0379.1875.0568.25569.0568.13636 0 .31065-.1079.52275-.3238.2121-.2159.4129-.4508.6022-.7046.1894-.2538.3978-.4886.625-.7045.2273-.2159.4167-.3239.5682-.3239.1061 0 .214.0265.3239.0796.1098.053.2443.1344.4034.2443.1591.1098.2538.1761.2841.1988.1894.1137.392.2311.6079.3523.216.1212.4565.2538.7216.3977.2652.144.4697.2576.6137.341.5303.2651.8182.4659.8636.6022.0227.0531.0341.1326.0341.2387z"/>
    <path id="path1_fill" d="M20 15.7955c0 .2556-.0473.5894-.142 1.0014-.0947.4119-.1942.7362-.2983.973-.1989.4735-.7766.9754-1.733 1.5057-.8901.4829-1.7708.7244-2.642.7244-.2557 0-.5043-.0166-.7458-.0497-.2415-.0332-.5137-.0923-.8167-.1776-.3031-.0852-.528-.1539-.6748-.2059-.1467-.0521-.4095-.1492-.7883-.2912-.3788-.1421-.6108-.2273-.696-.2557-.9281-.3315-1.75666-.7244-2.48583-1.179-1.21212-.7481-2.46449-1.7685-3.7571-3.0611-1.29261-1.2926-2.31297-2.545-3.06108-3.7571-.45454-.7291-.84754-1.55774-1.178976-2.48577C.951705 8.4517.866477 8.2197.724432 7.84091c-.142046-.37879-.23911-.64157-.291193-.78835C.381155 6.90578.3125 6.68087.227273 6.37784c-.085228-.30303-.1444132-.57528-.1775571-.81676C.016572 5.3196 0 5.07102 0 4.81534c0-.87121.241477-1.75189.724432-2.64204C1.25473 1.21686 1.75663.639205 2.23011.440341c.23675-.104167.56108-.203599.97301-.298296C3.61506.0473485 3.94886 0 4.20455 0c.13257 0 .232.0142045.29829.0426136.17046.0568182.4214.4166664.75284 1.0795464.10417.17992.24621.43561.42614.76704.17992.33144.34564.63211.49716.90199.15151.26989.29829.5232.44034.75995.02841.03788.11127.15625.24858.35511.13731.19886.23911.36695.3054.50426.06628.13731.09943.27226.09943.40483 0 .18939-.13495.42614-.40483.71023-.26989.28409-.56345.54451-.88068.78125-.31724.23674-.6108.48769-.88069.75284-.26988.26515-.40483.48295-.40483.65341 0 .08523.02368.19176.07103.3196.04735.12784.08759.22491.12074.29119.03314.06629.09943.17993.19886.34091.09943.16099.15388.25095.16335.26989.7197 1.29734 1.54356 2.41004 2.47159 3.33804.92803.9281 2.04072 1.7519 3.33803 2.4716.019.0095.1089.0639.2699.1634.161.0994.2746.1657.3409.1988.0663.0332.1634.0734.2912.1208.1279.0473.2344.071.3196.071.1705 0 .3883-.1349.6534-.4048.2652-.2699.5161-.5635.7529-.8807.2367-.3173.4971-.6108.7812-.8807.2841-.2699.5209-.4048.7103-.4048.1325 0 .2675.0331.4048.0994.1373.0663.3054.1681.5043.3054.1988.1373.3172.2202.3551.2486.2367.142.49.2888.7599.4403.2699.1515.5706.3173.902.4972.3314.1799.5871.322.767.4261.6629.3315 1.0228.5824 1.0796.7529.0284.0662.0426.1657.0426.2983z"/>
    <path id="path2_fill" d="M15.7842 13.6803l-4.0961-4.09628c.5847-.95471.9393-2.06716.9393-3.27004C12.6274 2.82763 9.79936 0 6.31368 0 2.82749 0 0 2.82763 0 6.31398 0 9.79983 2.82749 12.628 6.31368 12.628c1.20282 0 2.31521-.3546 3.26988-.9373l4.09604 4.0943c.2878.2877.7646.2857 1.0523 0l1.0523-1.0524c.2877-.2877.2877-.7646 0-1.0523zm-9.47052-3.157c-2.32447 0-4.20912-1.88473-4.20912-4.20932 0-2.32458 1.88465-4.20932 4.20912-4.20932 2.32447 0 4.20912 1.88474 4.20912 4.20932 0 2.32459-1.88465 4.20932-4.20912 4.20932z"/>
    <path id="path3_fill" fill-rule="evenodd" d="M10.9663 5.53784c0 3.05847-2.44733 5.53786-5.46627 5.53786-3.01894 0-5.4662968-2.47939-5.4662968-5.53786C.0337332 2.47937 2.48109 0 5.50003 0s5.46627 2.47937 5.46627 5.53784zM8.88661 5.5c0 1.93298-1.54732 3.5-3.45601 3.5-1.90868 0-3.456-1.56702-3.456-3.5S3.52192 2 5.4306 2c1.90869 0 3.45601 1.56702 3.45601 3.5z"/>
    <path id="path4_fill" d="M5.49975 16c-.13976 0-.34164-.2045-.34164-.2045C-.743021 8.92034.0337332 5.53784.0337332 5.53784S1.74195 11.06 5.50003 11.0757L5.49975 16z"/>
    <path id="path5_fill" d="M5.49975 16c.13976 0 .34162-.2045.34162-.2045C11.7425 8.92034 10.9663 5.53784 10.9663 5.53784S9.25812 11.06 5.50003 11.0757L5.49975 16z"/>
    <path id="path6_fill" d="M6.91175 5.5c0 .82843-.66313 1.5-1.48115 1.5-.81801 0-1.48114-.67157-1.48114-1.5S4.61259 4 5.4306 4c.81802 0 1.48115.67157 1.48115 1.5z"/>
    <path id="path7_fill" fill-rule="evenodd" d="M13.9571 6.92231c0 3.82309-3.1148 6.92229-6.95706 6.92229-3.84229 0-6.9571068-3.0992-6.9571068-6.92229S3.15775 0 7.00004 0c3.84226 0 6.95706 3.09922 6.95706 6.92231zm-2.6469-.0473c0 2.41623-1.96929 4.37499-4.39852 4.37499-2.42924 0-4.39855-1.95876-4.39855-4.37499C2.51313 4.45877 4.48244 2.5 6.91168 2.5c2.42923 0 4.39852 1.95877 4.39852 4.37501z"/>
    <path id="path8_fill" d="M6.99968 20c-.17788 0-.43482-.2557-.43482-.2557C-.945663 11.1504.0429332 6.92231.0429332 6.92231S2.21702 13.825 7.00004 13.8446L6.99968 20z"/>
    <path id="path9_fill" d="M6.99968 20c.17788 0 .4348-.2557.4348-.2557C14.945 11.1504 13.9571 6.92231 13.9571 6.92231s-2.174 6.90269-6.95706 6.92229L6.99968 20z"/>
    <path id="path10_fill" d="M8.79677 6.87501c0 1.03553-.84398 1.875-1.88509 1.875s-1.88509-.83947-1.88509-1.875C5.02659 5.83947 5.87057 5 6.91168 5s1.88509.83947 1.88509 1.87501z"/>
    <path id="path11_fill" fill-rule="evenodd" d="M16 8c0 4.4183-3.5817 8-8 8-4.41827 0-8-3.5817-8-8 0-4.41827 3.58173-8 8-8 4.4183 0 8 3.58173 8 8zm-4.4791-2.98016l-.5531-.5531c-.1909-.19092-.5004-.19092-.6913-.00007L7.99567 6.7475 5.7149 4.46674c-.19085-.19092-.50036-.19092-.69128 0l-.55304.55304c-.19092.19091-.19092.50042 0 .69128l2.28076 2.28076-2.28076 2.28078c-.19092.191-.19092.5005 0 .6913l.55304.5531c.19092.1909.50043.1909.69128 0l2.28083-2.28073L10.2765 11.517c.1909.1909.5004.1909.6913 0l.5531-.553c.1909-.1909.1909-.5004 0-.6914L9.24011 7.99188l2.28079-2.28076c.1908-.19092.1908-.50043 0-.69128z"/>
    <path id="path12_fill" d="M8 0C3.582 0 0 3.582 0 8c0 4.4187 3.582 8 8 8s8-3.5813 8-8c0-4.418-3.582-8-8-8zm5.1693 6.374l-5.73797 5.738c-.11733.118-.308.118-.42466 0l-.848-.8567c-.11667-.1173-.308-.3093-.424-.428L3.76133 8.75267c-.058-.058-.08866-.14-.08866-.218 0-.07667.03066-.15134.08866-.20934L4.626 7.546c.05867-.06.13667-.08933.214-.08933.076.00066.152.03066.21.08933l1.95733 1.99667c.11667.11866.30734.11866.42467 0l4.466-4.454c.1173-.118.3073-.118.424 0l.848.85666c.1167.11734.1167.31067-.0007.42867z"/>
    <path id="path13_fill" d="M0 0h16v2H0V0z"/>
    <path id="path14_fill" d="M0 0h16v2H0V0z"/>
    <path id="path15_fill" d="M0 5h16v2H0V5z"/>
    <path id="path16_fill" d="M0 10h16v2H0v-2z"/>
  </defs>
</svg>
