<svg width="100" height="100" xmlns="http://www.w3.org/2000/svg" xmlns:xlink="http://www.w3.org/1999/xlink"><g fill="#C7D7E2"><use xlink:href="#path0_fill"/><use xlink:href="#path1_fill"/><use xlink:href="#path2_fill"/><use xlink:href="#path3_fill"/></g><defs><path id="path0_fill" d="M72.106 59.383c-1.543 0-2.523.66-3.077 1.213l-6.18 6.185c-.05.048-.314.179-.924.179-3.406 0-10.637-3.789-17.871-11.027-9.725-9.721-11.87-17.774-10.848-18.795l6.185-6.181c4.077-4.077-3.138-12.508-7.8-17.171-2.117-2.116-9.38-9.013-14.092-9.013-1.542 0-2.522.66-3.076 1.213l-12.37 12.37c-3.71 3.71-2.388 10.916 3.94 21.414 5.46 9.066 14.094 19.686 24.316 29.908C45.4 84.77 65.399 100 76.057 100h.004c2.897 0 4.63-1.123 5.57-2.067l12.37-12.37c4.077-4.073-3.137-12.504-7.8-17.167-2.116-2.116-9.38-9.013-14.095-9.013zm5.106 34.131c-.09.09-.431.236-1.156.236-6.221 0-22.823-9.985-41.328-28.491-9.872-9.872-18.177-20.069-23.385-28.711-5.819-9.664-5.322-13.322-4.87-13.774L18.04 11.206c1.542.63 4.996 2.865 9.13 6.999 4.139 4.138 6.368 7.593 7 9.13l-5.384 5.384C23.02 38.493 30.37 51.09 39.635 60.352c7.926 7.93 16.467 12.858 22.29 12.858 2.75 0 4.423-1.09 5.342-2.01l5.384-5.384c1.538.63 4.992 2.86 9.13 6.999 4.135 4.138 6.369 7.589 7 9.13L77.211 93.515z"/><path id="path1_fill" d="M89.431 10.555C82.628 3.748 73.571 0 63.931 0h-.008a3.126 3.126 0 0 0 0 6.25h.008c7.971 0 15.458 3.097 21.081 8.724 5.628 5.627 8.724 13.114 8.724 21.09a3.126 3.126 0 0 0 6.25 0c.004-9.644-3.747-18.701-10.555-25.509z"/><path id="path2_fill" d="M59.8 18.608h.009c5.77 0 11.186 2.242 15.259 6.31 4.069 4.074 6.31 9.494 6.31 15.268a3.126 3.126 0 0 0 6.25 0c.005-7.443-2.888-14.433-8.141-19.686-5.253-5.25-12.24-8.142-19.678-8.142h-.008a3.126 3.126 0 0 0 0 6.25z"/><path id="path3_fill" d="M55.679 30.965h.008c3.565 0 6.917 1.388 9.432 3.902a13.258 13.258 0 0 1 3.902 9.44 3.126 3.126 0 0 0 6.25 0 19.452 19.452 0 0 0-5.733-13.859c-3.695-3.698-8.614-5.733-13.85-5.733h-.009a3.126 3.126 0 0 0 0 6.25z"/></defs></svg>