<svg width="146" height="100" xmlns="http://www.w3.org/2000/svg" xmlns:xlink="http://www.w3.org/1999/xlink"><g fill="#C7D7E2"><use xlink:href="#path0_fill"/><use xlink:href="#path1_fill"/><use xlink:href="#path2_fill"/><use xlink:href="#path3_fill"/><use xlink:href="#path4_fill"/><use xlink:href="#path5_fill"/><use xlink:href="#path6_fill"/></g><defs><path id="path0_fill" d="M145.418 86.355h-18.16v-7.097h11.063V50.73l-7.802-25.44h-35.1v53.968h4.548v7.097H88.355V18.194h46.705l10.358 31.076v37.084z"/><path id="path1_fill" d="M27.258 86.355H9.097V54.548h7.064v24.71h11.097v7.097z"/><path id="path2_fill" d="M95.418 86.355H54.515v-7.097h33.84V7.097H0V0h95.418v86.355z"/><path id="path3_fill" d="M45.452 19.194H4.547v7.097h40.904v-7.097z"/><path id="path4_fill" d="M36.355 37.355H9.097v7.097h27.258v-7.097z"/><path id="path5_fill" fill-rule="evenodd" d="M41.5 100C51.717 100 60 91.717 60 81.5S51.717 63 41.5 63 23 71.283 23 81.5 31.283 100 41.5 100zm0-7C35.149 93 30 87.851 30 81.5S35.149 70 41.5 70 53 75.149 53 81.5 47.851 93 41.5 93z"/><path id="path6_fill" fill-rule="evenodd" d="M114.5 100c10.217 0 18.5-8.283 18.5-18.5S124.717 63 114.5 63 96 71.283 96 81.5s8.283 18.5 18.5 18.5zm0-7c-6.351 0-11.5-5.149-11.5-11.5S108.149 70 114.5 70 126 75.149 126 81.5 120.851 93 114.5 93z"/></defs></svg>