<svg width="103" height="100" xmlns="http://www.w3.org/2000/svg" xmlns:xlink="http://www.w3.org/1999/xlink"><use xlink:href="#path0_fill" fill="#C7D7E2"/><defs><path id="path0_fill" d="M12.774 31.85a3.226 3.226 0 0 0 2.618-.932l2.73-2.733 18.925 18.91-28.1 28.08c-2.263 2.262-3.35 5.388-3.054 8.8.282 3.2 1.767 6.291 4.147 8.662l.234.241c2.782 2.773 6.363 4.192 9.776 4.192 2.89 0 5.66-1.014 7.732-3.084l20.926-20.91 23.522 23.82c2.001 2 4.748 3.104 7.735 3.104 3.53 0 7.088-1.535 9.961-4.414 2.42-2.416 3.901-5.504 4.179-8.703.293-3.407-.788-6.533-3.042-8.78l-18.11-18.347c6.098-.008 11.934-2.636 17.247-7.946l7.393-7.388c8.087-8.078 5.692-17.592 1.903-26.671l-1.863-4.46-11.958 11.962c-1.763 1.766-3.35 2.78-4.708 3.014-.874.156-2.228.122-4.194-1.851l-.23-.223c-1.948-1.946-3.458-4.233 1.185-8.878l11.97-11.954-4.46-1.863c-9.082-3.79-18.6-6.168-26.683 1.903l-7.404 7.392c-8.278 8.284-10.642 17.799-6.83 27.093-.231.19-.454.39-.667.601L41.62 42.52 22.695 23.61l2.977-2.976a3.232 3.232 0 0 0-.514-4.99L10.15 5.79a3.239 3.239 0 0 0-4.068.417L.944 11.35a3.24 3.24 0 0 0-.414 4.062l9.862 14.994a3.267 3.267 0 0 0 2.382 1.442zm73.698 50.806c.893.892 1.312 2.191 1.183 3.668-.145 1.684-.96 3.345-2.496 4.886-1.476 1.474-3.37 2.32-5.196 2.32-.889 0-2.157-.208-3.14-1.19L47.634 62.777l9.671-9.666 29.166 29.545zM48.236 45.063c.364-.363.83-.647 1.42-.87l3.504-1.31-1.803-3.275c-4.206-7.648-2.73-15.131 4.377-22.237l7.403-7.392c3.774-3.775 7.97-4.496 15.012-2.226l-4.994 4.986c-8.363 8.363-4.33 14.883-1.16 18.053l.231.222c3.757 3.766 7.433 4.043 9.854 3.627 2.738-.48 5.415-2.055 8.177-4.816l4.99-4.99c2.268 7.049 1.548 11.24-2.227 15.01l-7.393 7.391c-6.616 6.612-13.631 7.79-21.414 3.657l-2.52-2.553c-1.008-1.018-2.258-1.81-3.719-2.36l-1.947-.732-5.837 5.83-3.987-3.983 2.033-2.032zm-2.625 10.59l-5.841 5.838.733 1.946c.542 1.446 1.334 2.69 2.34 3.693l1.32 1.334-20.958 20.948c-1.99 1.992-5.742 1.493-8.322-1.073l-.234-.246c-1.338-1.333-2.157-2.994-2.302-4.682-.13-1.47.29-2.776 1.179-3.665l28.1-28.079 3.985 3.986zM8.806 12.644l9.481 6.228-4.662 4.66-6.235-9.474 1.416-1.414z"/></defs></svg>