<svg width="105" height="100" xmlns="http://www.w3.org/2000/svg" xmlns:xlink="http://www.w3.org/1999/xlink"><g fill="#C7D7E2"><use xlink:href="#path0_fill"/><use xlink:href="#path1_fill"/></g><defs><path id="path0_fill" fill-rule="evenodd" d="M67.687 10.304a43.458 43.458 0 1 0 25.77 39.72v-4.343a3.271 3.271 0 0 1 6.543 0v4.348a50 50 0 1 1-29.65-45.7 3.271 3.271 0 0 1-2.663 5.975z"/><path id="path1_fill" fill-rule="evenodd" d="M103.715 5.658a3.272 3.272 0 0 1 0 4.626L52.313 61.686a3.271 3.271 0 0 1-4.626 0l-14.019-14.02a3.271 3.271 0 0 1 4.626-4.625L50 54.747l49.089-49.09a3.271 3.271 0 0 1 4.626 0z"/></defs></svg>