<?xml version="1.0" standalone="no"?>
<!DOCTYPE svg PUBLIC "-//W3C//DTD SVG 20010904//EN"
 "http://www.w3.org/TR/2001/REC-SVG-20010904/DTD/svg10.dtd">
<svg version="1.0" xmlns="http://www.w3.org/2000/svg"
 width="512.000000pt" height="512.000000pt" viewBox="0 0 512.000000 512.000000"
 preserveAspectRatio="xMidYMid meet">
<metadata>
Created by potrace 1.11, written by Peter Selinger 2001-2013
</metadata>
<g transform="translate(0.000000,512.000000) scale(0.100000,-0.100000)"
fill="#000000" stroke="none">
<path d="M2484 5006 c-2 -6 -3 -71 -1 -144 1 -72 -2 -132 -6 -132 -5 0 -98 52
-208 115 -109 63 -199 111 -200 107 -6 -55 -2 -226 6 -232 9 -6 175 -103 325
-189 25 -14 54 -31 63 -37 16 -9 18 -27 19 -143 0 -73 -2 -134 -4 -136 -2 -2
-136 73 -298 166 -162 94 -322 185 -356 204 l-61 34 0 -118 0 -117 215 -125
c119 -68 241 -139 271 -157 31 -18 71 -40 89 -49 17 -9 32 -19 32 -22 0 -8
-176 -111 -190 -111 -5 0 -10 -3 -10 -7 0 -5 -26 -21 -58 -37 -31 -17 -72 -40
-90 -52 l-33 -21 99 -57 c54 -31 103 -56 108 -56 5 0 70 36 144 79 74 44 136
78 138 76 7 -7 3 -208 -4 -215 -5 -5 -112 -68 -239 -141 -126 -72 -246 -141
-265 -152 -95 -55 -215 -124 -245 -141 l-33 -18 -96 54 -96 55 52 29 c162 91
222 127 229 137 9 13 9 238 1 233 -4 -2 -79 -45 -167 -96 -199 -116 -208 -120
-214 -115 -2 3 -5 161 -5 351 l-1 346 -100 58 -100 59 -3 -409 c-1 -226 -4
-410 -7 -410 -15 0 -235 135 -235 144 -1 6 -2 114 -3 240 l-2 228 -93 54 c-52
30 -97 54 -101 54 -5 0 -8 -101 -8 -225 0 -124 -2 -228 -6 -231 -3 -4 -60 25
-127 64 -120 71 -120 71 -134 49 -34 -56 -86 -149 -86 -155 0 -4 48 -34 107
-67 58 -33 113 -65 121 -71 15 -11 2 -20 -248 -164 -69 -39 -129 -75 -133 -80
-5 -4 37 -33 93 -64 l101 -58 57 33 c95 54 113 64 236 136 l119 69 86 -49 c47
-28 98 -57 113 -64 15 -8 30 -18 32 -22 5 -8 3 -9 -364 -219 -140 -80 -274
-157 -297 -172 l-41 -27 100 -58 c84 -48 103 -56 121 -47 12 6 150 84 307 175
l285 164 5 -223 5 -222 100 58 100 58 1 156 c1 86 4 159 7 163 3 3 46 -18 94
-45 l89 -51 -1 -455 c0 -443 -1 -456 -20 -470 -11 -9 -24 -16 -28 -16 -4 0
-33 -16 -63 -35 -30 -19 -59 -35 -64 -35 -12 0 -12 -1 -11 173 0 107 -3 142
-13 153 -8 8 -16 14 -19 14 -2 0 -42 22 -88 50 l-84 50 -3 -224 -2 -225 -298
171 c-163 94 -302 172 -309 175 -7 3 -57 -21 -113 -52 l-101 -58 53 -31 c29
-18 189 -110 355 -205 167 -96 300 -177 298 -181 -5 -9 -109 -70 -139 -82 -10
-5 -31 -17 -46 -28 -15 -11 -35 -20 -43 -20 -8 0 -104 52 -212 115 -109 63
-200 115 -203 115 -17 0 -202 -114 -195 -120 4 -5 24 -17 43 -28 19 -11 100
-57 180 -104 80 -46 153 -89 162 -94 15 -8 7 -16 -50 -47 -37 -21 -74 -42 -82
-47 -8 -5 -37 -22 -63 -38 -42 -25 -46 -30 -33 -42 9 -7 16 -19 16 -26 0 -8 3
-14 8 -14 4 0 13 -12 19 -28 7 -15 22 -41 33 -59 l19 -32 73 43 c106 62 168
96 176 96 4 0 6 -103 6 -230 -1 -126 2 -230 6 -230 5 0 50 24 102 54 l93 54 2
193 c1 107 2 215 3 241 l0 46 112 64 c62 34 116 65 120 66 4 2 8 -181 8 -407
l0 -411 47 27 c67 37 147 84 153 90 3 2 5 159 6 349 1 189 3 347 6 350 3 3 43
-17 89 -44 180 -106 280 -162 289 -162 5 0 9 50 8 115 l-1 116 -81 46 c-45 25
-107 60 -138 77 -32 17 -58 34 -58 38 0 8 161 101 175 101 5 0 134 -71 285
-158 151 -87 288 -166 303 -174 16 -9 36 -21 45 -26 9 -6 47 -27 84 -48 37
-21 70 -43 73 -48 5 -7 9 -139 6 -191 -1 -13 -33 1 -143 64 l-141 81 -81 -43
c-45 -24 -92 -52 -105 -62 -21 -16 -22 -18 -5 -25 9 -3 92 -50 184 -103 92
-54 173 -99 180 -102 7 -2 -38 -33 -101 -69 -375 -215 -476 -274 -490 -286
-13 -11 -16 -35 -16 -128 l0 -115 56 32 c31 17 97 55 146 84 50 28 106 61 125
72 19 11 114 65 210 120 96 55 176 99 178 97 3 -3 5 -119 3 -235 -1 -35 -4
-38 -113 -100 -62 -36 -121 -69 -130 -75 -9 -5 -35 -20 -57 -32 -22 -12 -57
-33 -78 -46 l-38 -24 2 -112 c1 -61 2 -113 2 -115 1 -3 91 47 202 110 110 64
203 113 206 110 3 -3 6 -66 5 -141 l0 -135 104 0 104 0 0 140 c0 77 3 140 6
140 4 0 29 -14 56 -30 26 -17 50 -30 52 -30 2 0 70 -38 150 -85 l146 -84 1 39
c0 22 1 56 1 75 0 19 -1 55 -1 79 l-1 45 -205 117 -205 116 0 140 c0 76 3 137
8 135 4 -2 129 -75 279 -161 149 -85 306 -176 347 -200 42 -25 77 -42 77 -38
1 4 2 57 3 117 l1 110 -60 36 c-33 20 -171 100 -307 179 l-247 143 156 88 c86
49 160 89 164 89 5 0 9 5 9 10 0 6 6 10 13 10 6 0 20 7 30 14 17 13 9 19 -80
70 -106 60 -123 65 -143 41 -7 -8 -16 -15 -21 -15 -4 0 -58 -29 -119 -65
l-111 -65 3 106 3 106 390 225 c215 123 393 225 397 226 3 1 47 -20 97 -48
l90 -49 -87 -51 c-48 -28 -107 -62 -132 -76 -72 -39 -71 -36 -68 -162 l3 -114
189 109 c104 59 191 106 193 104 2 -2 5 -160 6 -351 l2 -347 100 -58 100 -58
3 409 c1 225 4 409 7 409 2 0 30 -15 62 -34 32 -19 83 -48 113 -64 l55 -31 5
-242 5 -242 85 -48 c47 -26 90 -53 97 -58 7 -6 14 -7 16 -3 2 4 4 109 3 234
-1 146 3 228 9 228 6 0 63 -31 127 -69 l118 -70 50 86 c27 47 50 88 50 91 0 4
-53 37 -117 73 -64 36 -118 70 -120 75 -2 6 16 20 39 32 24 12 69 36 100 54
31 18 102 59 158 92 116 66 118 53 -17 130 l-83 48 -87 -50 c-49 -27 -140 -79
-203 -115 -63 -37 -120 -67 -125 -67 -6 0 -57 27 -114 60 -57 33 -108 60 -113
60 -21 0 0 24 42 47 25 14 171 97 325 186 154 88 293 167 308 175 16 8 27 15
25 17 -7 6 -136 82 -169 99 l-36 19 -214 -123 c-118 -67 -239 -136 -269 -153
-30 -17 -72 -41 -92 -54 l-38 -23 -2 225 -3 225 -102 -60 -103 -60 0 -166 0
-165 -29 20 c-16 12 -32 21 -35 21 -3 0 -31 17 -63 38 l-58 37 1 453 c0 248 3
454 5 456 2 2 43 26 91 54 l88 50 2 -165 3 -166 100 -58 100 -57 3 223 2 224
143 -82 c78 -46 149 -86 157 -90 8 -4 24 -13 35 -20 72 -44 274 -157 279 -157
4 0 51 26 106 57 111 64 111 55 4 114 -231 129 -614 352 -614 358 0 3 21 17
48 31 26 14 78 44 116 66 l69 42 106 -62 c58 -34 131 -76 161 -93 30 -17 76
-43 103 -58 l47 -27 100 58 c55 32 97 61 93 65 -7 7 -147 88 -251 146 -24 13
-67 39 -97 57 l-53 32 121 69 c67 38 123 70 125 71 4 3 -9 29 -59 116 l-39 67
-121 -70 c-66 -38 -124 -69 -127 -69 -4 0 -7 103 -6 230 0 126 -3 230 -7 230
-5 0 -43 -20 -86 -45 -43 -25 -85 -49 -93 -54 -13 -7 -15 -47 -18 -248 l-2
-240 -112 -64 c-62 -35 -116 -65 -120 -67 -4 -2 -8 182 -8 408 l0 412 -32 -20
c-18 -11 -60 -34 -93 -52 -33 -18 -64 -37 -70 -42 -6 -5 -11 -139 -12 -354 -1
-190 -3 -348 -6 -350 -2 -3 -42 18 -88 45 -46 27 -133 76 -192 110 l-108 61 2
-120 1 -120 143 -82 144 -81 -95 -54 -95 -54 -352 202 c-193 112 -371 214
-394 227 l-43 24 0 109 0 108 121 -70 c178 -104 151 -100 269 -34 56 31 100
58 98 60 -4 4 -333 194 -366 211 -26 13 -64 -11 353 229 121 69 225 131 230
136 6 6 10 61 10 124 l1 113 -28 -14 c-15 -8 -80 -45 -145 -83 -65 -37 -138
-79 -163 -93 -25 -14 -112 -65 -195 -113 -82 -48 -158 -91 -167 -96 -17 -9
-18 0 -18 129 l0 140 205 116 c185 106 205 120 206 144 2 75 0 204 -3 207 -1
1 -46 -22 -98 -53 -185 -108 -300 -172 -307 -172 -5 0 -7 63 -5 140 2 77 -1
141 -5 141 -50 7 -196 3 -199 -5z m203 -1607 c48 -29 106 -62 128 -74 305
-174 552 -318 560 -329 6 -8 9 -172 8 -452 -1 -241 -2 -444 -2 -451 -1 -6 -40
-33 -88 -60 -49 -28 -226 -129 -395 -226 -169 -97 -309 -177 -312 -177 -2 0
-75 41 -162 91 -208 120 -555 319 -599 343 l-35 20 2 458 3 459 390 224 c215
124 395 225 402 225 6 0 51 -23 100 -51z"/>
<path d="M2562 3254 c-12 -8 -22 -12 -22 -8 0 4 -8 0 -17 -8 -10 -8 -85 -53
-168 -100 -82 -47 -166 -95 -185 -107 -19 -11 -72 -41 -116 -66 -45 -25 -86
-51 -92 -58 -6 -7 -9 -148 -8 -371 l1 -360 47 -27 c25 -15 66 -38 90 -52 23
-13 142 -81 264 -150 121 -70 225 -127 231 -127 5 0 149 80 319 178 l309 178
3 365 2 364 -52 32 c-29 17 -69 40 -88 50 -19 11 -138 79 -264 152 -126 72
-230 131 -231 131 0 0 -11 -7 -23 -16z m70 -248 c24 -13 117 -67 208 -119
l165 -95 2 -248 3 -249 -212 -121 -212 -121 -180 104 c-99 57 -181 103 -184
103 -2 0 -17 9 -33 21 l-29 21 2 245 3 245 40 23 c22 12 80 46 128 74 49 28
90 51 92 51 1 0 36 20 76 45 41 24 77 45 81 45 4 0 27 -11 50 -24z"/>
</g>
</svg>
