<?xml version="1.0" standalone="no"?>
<!DOCTYPE svg PUBLIC "-//W3C//DTD SVG 20010904//EN"
 "http://www.w3.org/TR/2001/REC-SVG-20010904/DTD/svg10.dtd">
<svg version="1.0" xmlns="http://www.w3.org/2000/svg"
 width="700.000000pt" height="700.000000pt" viewBox="0 0 700.000000 700.000000"
 preserveAspectRatio="xMidYMid meet">
<metadata>
Created by potrace 1.11, written by Peter Selinger 2001-2013
</metadata>
<g transform="translate(0.000000,700.000000) scale(0.100000,-0.100000)"
fill="#000000" stroke="none">
<path d="M588 6990 c-147 -25 -267 -89 -378 -200 -94 -94 -142 -172 -182 -300
l-23 -75 0 -2915 0 -2915 23 -75 c40 -128 88 -206 182 -300 94 -94 172 -142
300 -182 l75 -23 2915 0 2915 0 75 23 c128 40 206 88 300 182 94 94 142 172
182 300 l23 75 0 2915 0 2915 -23 75 c-40 128 -88 206 -182 300 -91 92 -168
139 -295 182 l-70 23 -2895 1 c-1592 1 -2916 -2 -2942 -6z m4480 -1960 c287
-32 488 -101 640 -221 196 -156 307 -431 353 -879 17 -162 17 -628 0 -790 -63
-605 -231 -883 -614 -1019 -320 -113 -868 -117 -1197 -10 -409 133 -579 414
-640 1059 -14 148 -14 580 0 735 32 354 109 617 230 780 135 183 377 299 710
339 141 17 387 20 518 6z m-1718 -305 l0 -265 -430 0 -430 0 0 -1185 0 -1185
-325 0 -325 0 0 1185 0 1185 -430 0 -430 0 0 265 0 265 1185 0 1185 0 0 -265z"/>
<path d="M4668 4505 c-135 -29 -251 -116 -299 -224 -67 -148 -94 -364 -94
-746 0 -677 85 -891 385 -966 32 -8 106 -14 180 -14 102 0 139 5 200 24 215
67 298 207 342 576 19 162 16 646 -5 805 -39 292 -114 437 -264 507 -108 50
-311 68 -445 38z"/>
</g>
</svg>
