<svg width="50" height="50" xmlns="http://www.w3.org/2000/svg" xmlns:xlink="http://www.w3.org/1999/xlink"><use xlink:href="#path0_fill" fill="#E2907A"/><use xlink:href="#path1_fill" transform="translate(16 10)" fill="#FFF"/><defs><path id="path0_fill" d="M50 25c0 13.807-11.193 25-25 25S0 38.807 0 25 11.193 0 25 0s25 11.193 25 25z"/><path id="path1_fill" fill-rule="evenodd" d="M8.5 30C3.754 30 0 26.074 0 21.342c0-3.12 1.581-5.839 3.953-7.349V4.53C3.953 2.013 6.028 0 8.4 0s4.447 2.013 4.447 4.53v9.262c2.471 1.51 4.151 4.329 4.151 7.45C17.097 26.074 13.243 30 8.5 30zm2.667-14.497l-.197-10.47c0-1.208-1.384-2.114-2.57-2.114s-2.47.906-2.47 2.115v10.57c-2.076 1.007-3.558 3.222-3.558 5.738 0 3.524 2.767 6.343 6.226 6.343s6.226-2.82 6.226-6.343c0-2.617-1.482-4.832-3.657-5.839zM8.5 26.073c-2.57 0-4.645-2.113-4.645-4.73 0-2.014 1.285-3.726 3.064-4.43v-8.86h2.965v8.86c1.877.604 3.26 2.315 3.26 4.43 0 2.617-2.074 4.73-4.644 4.73z"/></defs></svg>