<svg width="50" height="50" xmlns="http://www.w3.org/2000/svg" xmlns:xlink="http://www.w3.org/1999/xlink"><use xlink:href="#path0_fill" fill="#E2907A"/><use xlink:href="#path1_fill" transform="translate(11 10)" fill="#FFF"/><defs><path id="path0_fill" d="M50 25c0 13.807-11.193 25-25 25S0 38.807 0 25 11.193 0 25 0s25 11.193 25 25z"/><path id="path1_fill" d="M4.997.14c-.022-.186-.327-.186-.35 0C3.888 6.311 0 7.583 0 11.873c0 2.65 2.208 4.8 4.822 4.8 2.616 0 4.823-2.15 4.823-4.8 0-4.29-3.887-5.562-4.648-11.735zm18.356 0c-.024-.186-.328-.186-.35 0-.76 6.172-4.648 7.444-4.648 11.734 0 2.65 2.207 4.8 4.823 4.8 2.615 0 4.822-2.15 4.822-4.8 0-4.29-3.887-5.562-4.647-11.735zm-9.528 13.326c-.76 6.174-4.648 7.445-4.648 11.735C9.177 27.85 11.385 30 14 30s4.822-2.149 4.822-4.8c0-4.29-3.887-5.56-4.647-11.734-.023-.186-.326-.186-.35 0z"/></defs></svg>