<svg width="50" height="50" xmlns="http://www.w3.org/2000/svg" xmlns:xlink="http://www.w3.org/1999/xlink"><use xlink:href="#path0_fill" fill="#E2907A"/><use xlink:href="#path1_fill" transform="translate(10 10)" fill="#FFF"/><defs><path id="path0_fill" d="M50 25c0 13.807-11.193 25-25 25S0 38.807 0 25 11.193 0 25 0s25 11.193 25 25z"/><path id="path1_fill" fill-rule="evenodd" d="M3.83 23.617a2.552 2.552 0 0 0 2.553 2.553h.638v2.234a1.596 1.596 0 0 0 3.192 0V26.17h3.191v2.234a1.596 1.596 0 0 0 3.192 0V26.17h3.191v2.234a1.596 1.596 0 0 0 3.192 0V26.17h.638a2.552 2.552 0 0 0 2.553-2.553v-.638h2.234a1.596 1.596 0 0 0 0-3.192H26.17v-3.191h2.234a1.596 1.596 0 0 0 0-3.192H26.17v-3.191h2.234a1.596 1.596 0 0 0 0-3.192H26.17v-.638a2.552 2.552 0 0 0-2.553-2.553h-.638V1.596a1.596 1.596 0 0 0-3.192 0V3.83h-3.191V1.596a1.597 1.597 0 0 0-3.192 0V3.83h-3.191V1.596a1.596 1.596 0 0 0-3.192 0V3.83h-.638A2.552 2.552 0 0 0 3.83 6.383v.638H1.596a1.596 1.596 0 0 0 0 3.192H3.83v3.191H1.596a1.596 1.596 0 0 0 0 3.192H3.83v3.191H1.596a1.596 1.596 0 0 0 0 3.192H3.83v.638zm15.957-12v6.766a1.4 1.4 0 0 1-1.404 1.404h-6.766a1.4 1.4 0 0 1-1.404-1.404v-6.766a1.4 1.4 0 0 1 1.404-1.404h6.766a1.4 1.4 0 0 1 1.404 1.404z"/></defs></svg>