<svg width="50" height="50" xmlns="http://www.w3.org/2000/svg" xmlns:xlink="http://www.w3.org/1999/xlink"><use xlink:href="#path0_fill" fill="#E2907A"/><use xlink:href="#path1_fill" transform="translate(12 10)" fill="#FFF"/><defs><path id="path0_fill" d="M50 25c0 13.807-11.193 25-25 25S0 38.807 0 25 11.193 0 25 0s25 11.193 25 25z"/><path id="path1_fill" fill-rule="evenodd" d="M20.096 3.364c-1.322-.198-3.678-.55-6.622.035-3.553.707-5.582 2.256-6.39 3.126l-.07.077-.083.067c-.53.433-1.454 1.508-2.274 3.074-.807 1.543-1.457 3.462-1.548 5.55-.183 4.167 1.561 6.87 3.641 8.816.98.917 2.744 2.025 4.85 2.534 2.073.5 4.417.411 6.714-.942 2.24-1.32 3.462-3.114 4.073-4.796.63-1.731.585-3.27.385-3.98l-.025-.09-.014-.092c-.138-.891-.614-2.288-1.552-3.427-.898-1.092-2.201-1.936-4.141-1.936-4.07 0-5.257 2.394-5.431 3.289-.06.641-.005 1.592.305 2.37.295.743.737 1.176 1.475 1.28.516.074.73-.006.781-.03.029-.014.054-.028.09-.108.048-.105.09-.29.09-.552 0-.257-.04-.517-.096-.723 0 0-.013-1.166 1.257-1.423 1.27-.256 1.734.63 1.734.63.213.794.376 2.14-.16 3.328a3.247 3.247 0 0 1-1.574 1.622c-.757.362-1.63.436-2.56.304-2.15-.306-3.342-1.754-3.916-3.196-.55-1.385-.603-2.892-.5-3.875l.005-.046.008-.046c.372-2.218 2.72-5.902 8.492-5.902 3.012 0 5.149 1.378 6.537 3.065 1.32 1.603 1.98 3.492 2.2 4.82.375 1.427.315 3.58-.478 5.764-.83 2.282-2.487 4.677-5.407 6.397-3.12 1.838-6.321 1.938-9.022 1.286-2.665-.644-4.9-2.029-6.241-3.284C2.066 23.95-.214 20.432.016 15.16c.115-2.63.927-4.986 1.895-6.837.928-1.774 2.052-3.182 2.97-3.961 1.282-1.346 3.877-3.164 7.986-3.98 3.494-.696 6.326-.268 7.677-.064l.326.049s.798.513.555 1.78c-.244 1.267-.993 1.267-.993 1.267a46.063 46.063 0 0 1-.336-.05z"/></defs></svg>